SplineFontDB: 3.2
FontName: Untitled2
FullName: Untitled2
FamilyName: Untitled2
Weight: Regular
Copyright: Copyright (c) 2024, Darren Embry
UComments: "2024-10-17: Created with FontForge (http://fontforge.org)"
Version: 001.000
ItalicAngle: 0
UnderlinePosition: -1008
UnderlineWidth: 384
Ascent: 1344
Descent: 336
InvalidEm: 0
LayerCount: 2
Layer: 0 0 "Back" 1
Layer: 1 0 "Fore" 0
XUID: [1021 323 -1642646731 12193472]
OS2Version: 0
OS2_WeightWidthSlopeOnly: 0
OS2_UseTypoMetrics: 1
CreationTime: 1729142792
ModificationTime: 1729229162
OS2TypoAscent: 0
OS2TypoAOffset: 1
OS2TypoDescent: 0
OS2TypoDOffset: 1
OS2TypoLinegap: 0
OS2WinAscent: 0
OS2WinAOffset: 1
OS2WinDescent: 0
OS2WinDOffset: 1
HheadAscent: 0
HheadAOffset: 1
HheadDescent: 0
HheadDOffset: 1
OS2Vendor: 'PfEd'
MarkAttachClasses: 1
DEI: 91125
Encoding: UnicodeBmp
UnicodeInterp: none
NameList: AGL For New Fonts
DisplaySize: -24
AntiAlias: 1
FitToEm: 0
WinInfo: 0 57 18
BeginPrivate: 0
EndPrivate
BeginChars: 65536 49

StartChar: uni0000
Encoding: 0 0 0
Width: 1008
VWidth: 4000
Flags: HW
LayerCount: 2
Fore
SplineSet
1015.59082031 365.232421875 m 0
 1015.59082031 52.6455078125 1220.44238281 -194.890625 1462.765625 -194.890625 c 0
 1693.08789062 -194.890625 1784.03320312 -53.4033203125 1801.95410156 -6.98046875 c 0
 1814.01074219 24.2529296875 1790.8984375 58.28125 1757.15625 58.28125 c 0
 1736.74804688 58.28125 1719.296875 45.5166015625 1712.35839844 27.54296875 c 1
 1712.69335938 28.4052734375 1697.40917969 -9.1259765625 1652.70019531 -43.115234375 c 0
 1615.41015625 -71.462890625 1556.70996094 -98.890625 1462.765625 -98.890625 c 0
 1272.72265625 -98.890625 1111.59082031 110.3515625 1111.59082031 365.232421875 c 0
 1111.59082031 676.895507812 1281.49609375 910.328125 1485.21875 910.328125 c 0
 1603.49609375 910.328125 1688.92480469 865.185546875 1741.74902344 774.977539062 c 0
 1781.51367188 707.07421875 1801.46875 614.333984375 1801.46875 509.25 c 0
 1801.46875 502.513671875 1800.72167969 382.139648438 1747.93164062 275.890625 c 0
 1738.15820312 256.21875 1706.16308594 198 1669.828125 198 c 0
 1662.47363281 198 1639.078125 198 1630.2578125 210.869140625 c 0
 1625.56347656 217.71875 1616.38867188 239.416992188 1627.03125 297.407226562 c 2
 1716.61621094 688.103515625 l 2
 1723.49414062 718.099609375 1700.66894531 746.859375 1669.828125 746.859375 c 0
 1647.03320312 746.859375 1627.92871094 730.935546875 1623.04003906 709.615234375 c 0
 1533.00683594 316.963867188 1533.00683594 316.963867188 1532.82519531 315.991210938 c 0
 1518.39453125 238.416992188 1528.12304688 190.09375 1551.015625 156.69140625 c 0
 1568.58398438 131.057617188 1603.19335938 102 1669.828125 102 c 0
 1824.68261719 102 1897.46875 359.767578125 1897.46875 509.25 c 0
 1897.46875 625.916015625 1876.27636719 735.228515625 1824.65136719 823.385742188 c 0
 1779.625 900.276367188 1683.7265625 1006.328125 1485.21875 1006.328125 c 0
 1230.43652344 1006.328125 1015.59082031 738.76953125 1015.59082031 365.232421875 c 0
96 128 m 0
 96 147.541992188 121.396484375 180 168 180 c 0
 206.916015625 180 239.052734375 174.548828125 267.091796875 165.638671875 c 0
 267.091796875 162.444335938 264.59765625 159.328125 263.288085938 156.293945312 c 0
 230.788085938 81.044921875 183.500976562 75.478515625 157.74609375 75.990234375 c 0
 98.5361328125 77.16015625 96 108.637695312 96 128 c 0
387.671875 321.40625 m 0
 387.671875 465.692382812 313.75 551.989257812 313.75 757.4375 c 0
 313.75 884.3046875 361.51171875 927.266601562 385.359375 944.401367188 c 0
 406.6015625 959.665039062 448.196289062 980.665039062 525.392578125 980.001953125 c 0
 582.260742188 979.509765625 627.265625 964.631835938 658.75390625 941.930664062 c 0
 697.537109375 913.969726562 720.000976562 872.774414062 720.000976562 817.748046875 c 0
 720.000976562 791.357421875 741.58203125 769.96875 768 769.96875 c 0
 794.4921875 769.96875 816 791.4765625 815.999023438 818.189453125 c 0
 815.357421875 960.428710938 707.958984375 1076.01757812 521.779296875 1076.01757812 c 0
 470.678710938 1076.01757812 217.75 1075.24414062 217.75 757.4375 c 0
 217.75 541.931640625 291.671875 441.751953125 291.671875 321.40625 c 0
 291.671875 299.9453125 290.552734375 279.173828125 288.385742188 259.450195312 c 1
 252.973632812 269.819335938 213.110351562 276 168 276 c 0
 70.2529296875 276 0 202.805664062 0 128 c 0
 0 46.2626953125 54.033203125 -20.0341796875 160.235351562 -20.0341796875 c 0
 239.033203125 -20.0341796875 311.736328125 22.908203125 353.201171875 122.39453125 c 1
 373.668945312 108.349609375 393.084960938 92.6494140625 413.028320312 76.390625 c 0
 466.75390625 32.59375 529.079101562 -20 624 -20 c 0
 788.719726562 -20 869.75 141.79296875 869.75 308.609375 c 0
 869.75 335.1015625 848.2421875 356.609375 821.75 356.609375 c 0
 795.2578125 356.609375 773.75 335.1015625 773.75 308.609375 c 0
 773.75 232.399414062 746.776367188 76 624 76 c 0
 567.609375 76 529.737304688 105.086914062 473.623046875 150.83203125 c 0
 446.766601562 172.724609375 416.627929688 197.52734375 379.958007812 219.266601562 c 0
 385.237304688 251.883789062 387.671875 286.188476562 387.671875 321.40625 c 0
16582 78 m 2
 16584.390625 83.5595703125 16588.3574219 76 16584 76 c 0
 16582.8730469 76 16582 78 16582 78 c 2
16486 78 m 0
 16486 23.908203125 16529.9082031 -20 16584 -20 c 0
 16638.0917969 -20 16682 23.908203125 16682 78 c 0
 16682 132.110351562 16638.0791016 176 16584 176 c 0
 16529.9208984 176 16486 132.110351562 16486 78 c 0
16534 78.005859375 m 0
 16534 105.620117188 16556.3857422 128.005859375 16584 128.005859375 c 0
 16611.6142578 128.005859375 16634 105.620117188 16634 78.005859375 c 0
 16634 50.3916015625 16611.6142578 28.005859375 16584 28.005859375 c 0
 16556.3857422 28.005859375 16534 50.3916015625 16534 78.005859375 c 0
50453.9794922 -248.794921875 m 2
 50436.3867188 -280.559570312 50459.4648438 -320 50496 -320 c 0
 50514.0771484 -320 50529.8339844 -309.985351562 50538.0205078 -295.205078125 c 2
 51258.0205078 1004.79492188 l 2
 51275.6132812 1036.55957031 51252.5351562 1076 51216 1076 c 0
 51197.9228516 1076 51182.1660156 1065.98535156 51173.9794922 1051.20507812 c 2
 50453.9794922 -248.794921875 l 2
31376 68 m 2
 31376 41.5078125 31397.5078125 20 31424 20 c 0
 31450.4921875 20 31472 41.5078125 31472 68 c 2
 31472 988 l 2
 31472 1014.4921875 31450.4921875 1036 31424 1036 c 0
 31397.5078125 1036 31376 1014.4921875 31376 988 c 2
 31376 68 l 2
31344 96 m 2
 31317.5078125 96 31296 74.4921875 31296 48 c 0
 31296 21.5078125 31317.5078125 0 31344 0 c 2
 32064 0 l 2
 32090.4921875 0 32112 21.5078125 32112 48 c 2
 32112 288 l 2
 32112 314.4921875 32090.4921875 336 32064 336 c 0
 32037.5078125 336 32016 314.4921875 32016 288 c 2
 32016 96 l 1
 31344 96 l 2
31996 960 m 1
 31996 776 l 2
 31996 749.5078125 32017.5078125 728 32044 728 c 0
 32070.4921875 728 32092 749.5078125 32092 776 c 2
 32092 1008 l 2
 32092 1034.4921875 32070.4921875 1056 32044 1056 c 2
 31344 1056 l 2
 31317.5078125 1056 31296 1034.4921875 31296 1008 c 0
 31296 981.5078125 31317.5078125 960 31344 960 c 2
 31996 960 l 1
31444 596 m 2
 31417.5078125 596 31396 574.4921875 31396 548 c 0
 31396 521.5078125 31417.5078125 500 31444 500 c 2
 31764 500 l 2
 31790.4921875 500 31812 521.5078125 31812 548 c 0
 31812 574.4921875 31790.4921875 596 31764 596 c 2
 31444 596 l 2
31812 668 m 2
 31812 694.4921875 31790.4921875 716 31764 716 c 0
 31737.5078125 716 31716 694.4921875 31716 668 c 2
 31716 408 l 2
 31716 381.5078125 31737.5078125 360 31764 360 c 0
 31790.4921875 360 31812 381.5078125 31812 408 c 2
 31812 668 l 2
44100 960 m 1
 44100 788 l 2
 44100 761.5078125 44121.5078125 740 44148 740 c 0
 44174.4921875 740 44196 761.5078125 44196 788 c 2
 44196 1008 l 2
 44196 1034.4921875 44174.4921875 1056 44148 1056 c 2
 43440 1056 l 2
 43413.5078125 1056 43392 1034.4921875 43392 1008 c 0
 43392 981.5078125 43413.5078125 960 43440 960 c 2
 44100 960 l 1
43588 1008 m 2
 43588 1034.4921875 43566.4921875 1056 43540 1056 c 0
 43513.5078125 1056 43492 1034.4921875 43492 1008 c 2
 43492 48 l 2
 43492 21.5078125 43513.5078125 0 43540 0 c 0
 43566.4921875 0 43588 21.5078125 43588 48 c 2
 43588 1008 l 2
43440 96 m 2
 43413.5078125 96 43392 74.4921875 43392 48 c 0
 43392 21.5078125 43413.5078125 0 43440 0 c 2
 43640 0 l 2
 43666.4921875 0 43688 21.5078125 43688 48 c 0
 43688 74.4921875 43666.4921875 96 43640 96 c 2
 43440 96 l 2
43560 596 m 2
 43533.5078125 596 43512 574.4921875 43512 548 c 0
 43512 521.5078125 43533.5078125 500 43560 500 c 2
 43860 500 l 2
 43886.4921875 500 43908 521.5078125 43908 548 c 0
 43908 574.4921875 43886.4921875 596 43860 596 c 2
 43560 596 l 2
43920 668 m 2
 43920 694.4921875 43898.4921875 716 43872 716 c 0
 43845.5078125 716 43824 694.4921875 43824 668 c 2
 43824 408 l 2
 43824 381.5078125 43845.5078125 360 43872 360 c 0
 43898.4921875 360 43920 381.5078125 43920 408 c 2
 43920 668 l 2
25528 248 m 2
 25528 74.4287109375 25636.4550781 -20 25776 -20 c 0
 25819.0976562 -20 25902.4619141 -4.70703125 25959.8105469 101.926757812 c 0
 25975.1455078 130.439453125 25982.1601562 152.567382812 25982.1601562 154.8046875 c 0
 25982.1601562 158.998046875 25984 163.424804688 25984 168 c 0
 25984 194.4921875 25962.4921875 216 25936 216 c 0
 25914.0839844 216 25895.578125 201.279296875 25889.8398438 181.1953125 c 2
 25889.8398438 181.1953125 25875.3720703 132.053710938 25839.2304688 100.428710938 c 0
 25822.3388672 85.6494140625 25802.828125 76 25776 76 c 0
 25721.3681641 76 25682.9746094 95.1435546875 25658.0556641 127.750976562 c 0
 25637.7255859 154.35546875 25624 193.868164062 25624 248 c 2
 25624 1008 l 2
 25624 1034.4921875 25602.4921875 1056 25576 1056 c 0
 25549.5078125 1056 25528 1034.4921875 25528 1008 c 2
 25528 248 l 2
25376 756 m 2
 25349.5078125 756 25328 734.4921875 25328 708 c 0
 25328 681.5078125 25349.5078125 660 25376 660 c 2
 25776 660 l 2
 25802.4921875 660 25824 681.5078125 25824 708 c 0
 25824 734.4921875 25802.4921875 756 25776 756 c 2
 25376 756 l 2
23388 378 m 0
 23388 549.828125 23510.2158203 680 23650 680 c 0
 23789.7685547 680 23912 549.825195312 23912 378 c 0
 23912 206.189453125 23789.7666016 76 23650 76 c 0
 23510.2177734 76 23388 206.1875 23388 378 c 0
23292 378 m 0
 23292 163.21875 23447.3447266 -20 23650 -20 c 0
 23852.6396484 -20 24008 163.216796875 24008 378 c 0
 24008 592.799804688 23852.6376953 776 23650 776 c 0
 23447.3466797 776 23292 592.796875 23292 378 c 0
23800 1056 m 2
 23773.5078125 1056 23752 1034.4921875 23752 1008 c 0
 23752 981.5078125 23773.5078125 960 23800 960 c 2
 23912 960 l 1
 23912 48 l 2
 23912 21.5078125 23933.5078125 0 23960 0 c 2
 24060 0 l 2
 24086.4921875 0 24108 21.5078125 24108 48 c 0
 24108 74.4921875 24086.4921875 96 24060 96 c 2
 24008 96 l 1
 24008 1008 l 2
 24008 1034.4921875 23986.4921875 1056 23960 1056 c 2
 23800 1056 l 2
49468 756 m 2
 49441.5078125 756 49420 734.4921875 49420 708 c 0
 49420 681.5078125 49441.5078125 660 49468 660 c 2
 49728 660 l 2
 49754.4921875 660 49776 681.5078125 49776 708 c 0
 49776 734.4921875 49754.4921875 756 49728 756 c 2
 49468 756 l 2
49968 756 m 2
 49941.5078125 756 49920 734.4921875 49920 708 c 0
 49920 681.5078125 49941.5078125 660 49968 660 c 2
 50228 660 l 2
 50254.4921875 660 50276 681.5078125 50276 708 c 0
 50276 734.4921875 50254.4921875 756 50228 756 c 2
 49968 756 l 2
49588 756 m 0
 49554.1191406 756 49531 721.7109375 49543.3212891 690.43359375 c 2
 49803.3212891 30.43359375 l 2
 49818.9980469 -9.3603515625 49875.4902344 -10.1240234375 49892.2099609 29.287109375 c 2
 50172.2099609 689.287109375 l 2
 50185.5419922 720.711914062 50162.40625 756 50128 756 c 0
 50108.1455078 756 50091.0898438 743.918945312 50083.7900391 726.712890625 c 2
 49849.6464844 174.802734375 l 1
 49632.6787109 725.56640625 l 2
 49625.6611328 743.379882812 49608.2929688 756 49588 756 c 0
45436 1056 m 2
 45409.5078125 1056 45388 1034.4921875 45388 1008 c 0
 45388 981.5078125 45409.5078125 960 45436 960 c 2
 45656 960 l 2
 45682.4921875 960 45704 981.5078125 45704 1008 c 0
 45704 1034.4921875 45682.4921875 1056 45656 1056 c 2
 45436 1056 l 2
45976 1056 m 2
 45949.5078125 1056 45928 1034.4921875 45928 1008 c 0
 45928 981.5078125 45949.5078125 960 45976 960 c 2
 46196 960 l 2
 46222.4921875 960 46244 981.5078125 46244 1008 c 0
 46244 1034.4921875 46222.4921875 1056 46196 1056 c 2
 45976 1056 l 2
45516 1056 m 0
 45483.9726562 1056 45460.9931641 1025.13183594 45469.9121094 994.553710938 c 2
 45749.9121094 34.5537109375 l 2
 45755.7324219 14.59765625 45774.1748047 0 45796 0 c 2
 45836 0 l 2
 45858.1464844 0 45876.8095703 15.0302734375 45882.3369141 35.4384765625 c 2
 46142.3369141 995.438476562 l 2
 46150.5693359 1025.8359375 46127.6337891 1056 46096 1056 c 0
 46073.8535156 1056 46055.1904297 1040.96972656 46049.6630859 1020.56152344 c 2
 45815.0292969 154.219726562 l 1
 45562.0878906 1021.44628906 l 2
 45556.2675781 1041.40234375 45537.8251953 1056 45516 1056 c 0
33720.3125 -19.8125 m 0
 33906.3798828 -19.8125 34058 130.901367188 34058 318 c 0
 34058 344.4921875 34036.4921875 366 34010 366 c 0
 33983.5078125 366 33962 344.4921875 33962 318 c 0
 33962 183.65234375 33853.1982422 76.1875 33720.3125 76.1875 c 0
 33586.3076172 76.1875 33478 183.942382812 33478 318 c 0
 33478 344.4921875 33456.4921875 366 33430 366 c 0
 33403.5078125 366 33382 344.4921875 33382 318 c 0
 33382 131.548828125 33532.7363281 -19.8125 33720.3125 -19.8125 c 0
33962 318 m 2
 33962 291.5078125 33983.5078125 270 34010 270 c 0
 34036.4921875 270 34058 291.5078125 34058 318 c 2
 34058 1008 l 2
 34058 1034.4921875 34036.4921875 1056 34010 1056 c 0
 33983.5078125 1056 33962 1034.4921875 33962 1008 c 2
 33962 318 l 2
33382 318 m 2
 33382 291.5078125 33403.5078125 270 33430 270 c 0
 33456.4921875 270 33478 291.5078125 33478 318 c 2
 33478 1008 l 2
 33478 1034.4921875 33456.4921875 1056 33430 1056 c 0
 33403.5078125 1056 33382 1034.4921875 33382 1008 c 2
 33382 318 l 2
33320 1056 m 2
 33293.5078125 1056 33272 1034.4921875 33272 1008 c 0
 33272 981.5078125 33293.5078125 960 33320 960 c 2
 33540 960 l 2
 33566.4921875 960 33588 981.5078125 33588 1008 c 0
 33588 1034.4921875 33566.4921875 1056 33540 1056 c 2
 33320 1056 l 2
33900 1056 m 2
 33873.5078125 1056 33852 1034.4921875 33852 1008 c 0
 33852 981.5078125 33873.5078125 960 33900 960 c 2
 34120 960 l 2
 34146.4921875 960 34168 981.5078125 34168 1008 c 0
 34168 1034.4921875 34146.4921875 1056 34120 1056 c 2
 33900 1056 l 2
32984 68 m 2
 32984 41.5078125 33005.5078125 20 33032 20 c 0
 33058.4921875 20 33080 41.5078125 33080 68 c 2
 33080 988 l 2
 33080 1014.4921875 33058.4921875 1036 33032 1036 c 0
 33005.5078125 1036 32984 1014.4921875 32984 988 c 2
 32984 68 l 2
32344 68 m 2
 32344 41.5078125 32365.5078125 20 32392 20 c 0
 32418.4921875 20 32440 41.5078125 32440 68 c 2
 32440 988 l 2
 32440 1014.4921875 32418.4921875 1036 32392 1036 c 0
 32365.5078125 1036 32344 1014.4921875 32344 988 c 2
 32344 68 l 2
32312 96 m 2
 32285.5078125 96 32264 74.4921875 32264 48 c 0
 32264 21.5078125 32285.5078125 0 32312 0 c 2
 32472 0 l 2
 32498.4921875 0 32520 21.5078125 32520 48 c 0
 32520 74.4921875 32498.4921875 96 32472 96 c 2
 32312 96 l 2
32952 96 m 2
 32925.5078125 96 32904 74.4921875 32904 48 c 0
 32904 21.5078125 32925.5078125 0 32952 0 c 2
 33112 0 l 2
 33138.4921875 0 33160 21.5078125 33160 48 c 0
 33160 74.4921875 33138.4921875 96 33112 96 c 2
 32952 96 l 2
32312 1056 m 2
 32285.5078125 1056 32264 1034.4921875 32264 1008 c 0
 32264 981.5078125 32285.5078125 960 32312 960 c 2
 32453.7470703 960 l 1
 32665.2109375 37.25 l 2
 32670.0976562 15.9267578125 32689.203125 0 32712 0 c 0
 32734.796875 0 32753.9023438 15.9267578125 32758.7890625 37.25 c 2
 32970.2529297 960 l 1
 33112 960 l 2
 33138.4921875 960 33160 981.5078125 33160 1008 c 0
 33160 1034.4921875 33138.4921875 1056 33112 1056 c 2
 32932 1056 l 2
 32909.203125 1056 32890.0976562 1040.07324219 32885.2109375 1018.75 c 2
 32712 262.921875 l 1
 32538.7890625 1018.75 l 2
 32533.9023438 1040.07324219 32514.796875 1056 32492 1056 c 2
 32312 1056 l 2
45136 1008 m 2
 45136 1034.4921875 45114.4921875 1056 45088 1056 c 0
 45061.5078125 1056 45040 1034.4921875 45040 1008 c 2
 45040 225.548828125 l 1
 44569.4921875 1032.13476562 l 2
 44561.1689453 1046.40332031 44545.6962891 1056 44528 1056 c 2
 44428 1056 l 2
 44401.5078125 1056 44380 1034.4921875 44380 1008 c 0
 44380 981.5078125 44401.5078125 960 44428 960 c 2
 44500.4296875 960 l 1
 45046.5078125 23.865234375 l 2
 45054.8310547 9.5966796875 45070.3037109 0 45088 0 c 0
 45114.4921875 0 45136 21.5078125 45136 48 c 2
 45136 1008 l 2
44428 96 m 2
 44401.5078125 96 44380 74.4921875 44380 48 c 0
 44380 21.5078125 44401.5078125 0 44428 0 c 2
 44628 0 l 2
 44654.4921875 0 44676 21.5078125 44676 48 c 0
 44676 74.4921875 44654.4921875 96 44628 96 c 2
 44428 96 l 2
44988 1056 m 2
 44961.5078125 1056 44940 1034.4921875 44940 1008 c 0
 44940 981.5078125 44961.5078125 960 44988 960 c 2
 45188 960 l 2
 45214.4921875 960 45236 981.5078125 45236 1008 c 0
 45236 1034.4921875 45214.4921875 1056 45188 1056 c 2
 44988 1056 l 2
44480 68 m 2
 44480 41.5078125 44501.5078125 20 44528 20 c 0
 44554.4921875 20 44576 41.5078125 44576 68 c 2
 44576 1008 l 2
 44576 1034.4921875 44554.4921875 1056 44528 1056 c 0
 44501.5078125 1056 44480 1034.4921875 44480 1008 c 2
 44480 68 l 2
57832 1056 m 2
 57805.5078125 1056 57784 1034.4921875 57784 1008 c 0
 57784 981.5078125 57805.5078125 960 57832 960 c 2
 57992 960 l 2
 58018.4921875 960 58040 981.5078125 58040 1008 c 0
 58040 1034.4921875 58018.4921875 1056 57992 1056 c 2
 57832 1056 l 2
58300 960 m 2
 58326.4921875 960 58348 981.5078125 58348 1008 c 0
 58348 1034.4921875 58326.4921875 1056 58300 1056 c 2
 58176 1056 l 2
 58149.5078125 1056 58128 1034.4921875 58128 1008 c 0
 58128 981.5078125 58149.5078125 960 58176 960 c 2
 58300 960 l 2
57648 960 m 2
 57674.4921875 960 57696 981.5078125 57696 1008 c 0
 57696 1034.4921875 57674.4921875 1056 57648 1056 c 2
 57524 1056 l 2
 57497.5078125 1056 57476 1034.4921875 57476 1008 c 0
 57476 981.5078125 57497.5078125 960 57524 960 c 2
 57648 960 l 2
36680 96 m 2
 36653.5078125 96 36632 74.4921875 36632 48 c 0
 36632 21.5078125 36653.5078125 0 36680 0 c 2
 36808 0 l 2
 36834.4921875 0 36856 21.5078125 36856 48 c 0
 36856 74.4921875 36834.4921875 96 36808 96 c 2
 36680 96 l 2
57552 1056 m 0
 57522.3818359 1056 57499.7734375 1029.34570312 57504.6542969 1000.06347656 c 2
 57664.6542969 40.0634765625 l 2
 57668.4414062 17.3427734375 57688.2109375 0 57712 0 c 2
 57732 0 l 2
 57755.7324219 0 57775.4648438 17.259765625 57779.3183594 39.9013671875 c 2
 57939.3183594 979.901367188 l 2
 57944.3095703 1009.22753906 57921.6884766 1036 57892 1036 c 0
 57868.2675781 1036 57848.5351562 1018.74023438 57844.6816406 996.098632812 c 2
 57722.3925781 277.653320312 l 1
 57599.3457031 1015.93652344 l 2
 57595.5585938 1038.65722656 57575.7890625 1056 57552 1056 c 0
57932 1036 m 0
 57902.3115234 1036 57879.6904297 1009.2265625 57884.6816406 979.901367188 c 2
 58044.6816406 39.9013671875 l 2
 58048.5351562 17.259765625 58068.2675781 0 58092 0 c 2
 58112 0 l 2
 58135.7890625 0 58155.5585938 17.3427734375 58159.3457031 40.0634765625 c 2
 58319.3457031 1000.06347656 l 2
 58324.2255859 1029.34472656 58301.6191406 1056 58272 1056 c 0
 58248.2109375 1056 58228.4414062 1038.65722656 58224.6542969 1015.93652344 c 2
 58101.6074219 277.653320312 l 1
 57979.3183594 996.098632812 l 2
 57975.4648438 1018.74023438 57955.7324219 1036 57932 1036 c 0
2592 -124 m 0
 2584.89941406 -124 2557.140625 -128.65234375 2515.85058594 -128.65234375 c 0
 2341.99707031 -128.65234375 2260.11425781 -42.7412109375 2215.86425781 35.890625 c 0
 2166.58300781 123.461914062 2140 249.125976562 2140 408 c 0
 2140 644.006835938 2183.06054688 866.252929688 2327.88671875 946.327148438 c 0
 2367.34570312 968.143554688 2414.58203125 980 2472 980 c 0
 2608.35351562 980 2682.03125 912.145507812 2724.8125 829.45703125 c 0
 2764.53808594 752.674804688 2784 647.87890625 2784 530.015625 c 0
 2784 413.069335938 2774.2734375 337.153320312 2760.59667969 293.0703125 c 0
 2749.5 257.302734375 2737.40625 245.844726562 2731.24804688 242.076171875 c 0
 2702.94335938 224.755859375 2660 267.440429688 2660 303.8125 c 0
 2660 330.3046875 2638.4921875 351.8125 2612 351.8125 c 0
 2585.5078125 351.8125 2564 330.3046875 2564 303.8125 c 0
 2564 254.004882812 2588.29199219 211.317382812 2619.74316406 182.404296875 c 0
 2644.86035156 159.3125 2677.1796875 142.0625 2714.25 142.0625 c 0
 2767.47753906 142.0625 2822.70019531 169.197265625 2852.30566406 264.625 c 0
 2870.88671875 324.516601562 2880 407.998046875 2880 530.015625 c 0
 2880 608.674804688 2876.83105469 915.196289062 2658.90332031 1032.30761719 c 0
 2605.66308594 1060.91894531 2543.04003906 1076 2472 1076 c 0
 2348.53125 1076 2206.53613281 1030.16601562 2121.50976562 851.762695312 c 0
 2067.64746094 738.748046875 2044 589.911132812 2044 408 c 0
 2044 272.381835938 2058.08496094 -60.6416015625 2309.44140625 -181.419921875 c 0
 2382.49707031 -216.522460938 2476.63183594 -233.908203125 2597.65820312 -219.668945312 c 0
 2621.48730469 -216.866210938 2640 -196.578125 2640 -172 c 0
 2640 -145.5078125 2618.4921875 -124 2592 -124 c 0
2611.296875 266.5 m 0
 2637.7890625 266.5 2659.296875 288.0078125 2659.296875 314.5 c 2
 2658.609375 643.883789062 l 2
 2658.55371094 670.328125 2637.06738281 691.78125 2610.609375 691.78125 c 0
 2584.1171875 691.78125 2562.609375 670.2734375 2562.609375 643.78125 c 2
 2563.296875 314.397460938 l 2
 2563.296875 287.953125 2584.83886719 266.5 2611.296875 266.5 c 0
2471.296875 826.671875 m 0
 2355.90332031 826.671875 2283.296875 758.146484375 2283.296875 658.671875 c 0
 2283.296875 632.1796875 2304.8046875 610.671875 2331.296875 610.671875 c 0
 2357.7890625 610.671875 2379.296875 632.1796875 2379.296875 658.671875 c 0
 2379.296875 694.275390625 2396.21289062 708.219726562 2406.23242188 714.77734375 c 0
 2420.39160156 724.045898438 2442.75585938 730.671875 2471.296875 730.671875 c 0
 2505.28125 730.671875 2562.609375 719.423828125 2562.609375 643.53125 c 0
 2562.609375 592.0234375 2518.75195312 559.614257812 2434.02832031 534.20703125 c 0
 2384.42675781 519.340820312 2263.296875 477.013671875 2263.296875 338.671875 c 0
 2263.296875 222.888671875 2330.93066406 138.984375 2431.296875 138.984375 c 0
 2537.55957031 138.984375 2659.296875 231.62890625 2659.296875 358.671875 c 0
 2659.296875 385.1640625 2637.7890625 406.671875 2611.296875 406.671875 c 0
 2584.8046875 406.671875 2563.296875 385.1640625 2563.296875 358.671875 c 0
 2563.296875 286.36328125 2485.5625 234.984375 2431.296875 234.984375 c 0
 2362.68554688 234.984375 2359.296875 321.567382812 2359.296875 338.671875 c 0
 2359.296875 376.094726562 2371.71191406 415.291992188 2461.59667969 442.23046875 c 0
 2547.87304688 468.104492188 2658.609375 520.0078125 2658.609375 643.53125 c 0
 2658.609375 750.6640625 2584.6953125 826.671875 2471.296875 826.671875 c 0
48508 96 m 2
 48481.5078125 96 48460 74.4921875 48460 48 c 0
 48460 21.5078125 48481.5078125 0 48508 0 c 2
 48712 0 l 2
 48738.4921875 0 48760 21.5078125 48760 48 c 0
 48760 74.4921875 48738.4921875 96 48712 96 c 2
 48508 96 l 2
48968 96 m 2
 48941.5078125 96 48920 74.4921875 48920 48 c 0
 48920 21.5078125 48941.5078125 0 48968 0 c 2
 49192 0 l 2
 49218.4921875 0 49240 21.5078125 49240 48 c 0
 49240 74.4921875 49218.4921875 96 49192 96 c 2
 48968 96 l 2
48567 51.1875 m 2
 48567 24.6953125 48588.5078125 3.1875 48615 3.1875 c 0
 48641.4921875 3.1875 48663 24.6953125 48663 51.1875 c 2
 48663 708 l 2
 48663 734.4921875 48641.4921875 756 48615 756 c 2
 48515 756 l 2
 48488.5078125 756 48467 734.4921875 48467 708 c 0
 48467 681.5078125 48488.5078125 660 48515 660 c 2
 48567 660 l 1
 48567 51.1875 l 2
48891.09375 680 m 0
 48984.3242188 680 49032 598.573242188 49032 523.78125 c 2
 49032 48 l 2
 49032 21.5078125 49053.5078125 0 49080 0 c 0
 49106.4921875 0 49128 21.5078125 49128 48 c 2
 49128 523.78125 l 2
 49128 660.2421875 49029.7333984 776 48891.09375 776 c 0
 48832.3574219 776 48782.7333984 762.047851562 48738.5273438 734.330078125 c 0
 48683.7285156 699.969726562 48639.21875 649.301757812 48579.2978516 582.6484375 c 0
 48551.6289062 551.87109375 48573.6816406 502.578125 48615 502.578125 c 0
 48629.1689453 502.578125 48641.9130859 508.73046875 48650.7021484 518.5078125 c 0
 48764.3818359 644.9609375 48801.8476562 680 48891.09375 680 c 0
36792 592.5625 m 2
 36792 701.41796875 36728.7685547 776 36633.984375 776 c 0
 36529.6884766 776 36460.8017578 698.5703125 36395.7275391 601.625976562 c 0
 36374.4501953 569.928710938 36397.3085938 526.921875 36435.609375 526.921875 c 0
 36452.2207031 526.921875 36466.8730469 535.37890625 36475.4912109 548.217773438 c 0
 36539.7607422 643.9609375 36584.8427734 680 36633.984375 680 c 0
 36649.6875 680 36674.0439453 677.049804688 36687.7480469 641.688476562 c 0
 36692.9628906 628.232421875 36696 610.970703125 36696 592.5625 c 2
 36696 48 l 2
 36696 21.5078125 36717.5078125 0 36744 0 c 0
 36770.4921875 0 36792 21.5078125 36792 48 c 2
 36792 592.5625 l 2
36387.609375 48 m 0
 36387.609375 21.5078125 36409.1171875 0 36435.609375 0 c 0
 36462.1015625 0 36483.609375 21.5078125 36483.609375 48 c 0
 36483.609375 74.4921875 36462.1015625 96 36435.609375 96 c 0
 36409.1171875 96 36387.609375 74.4921875 36387.609375 48 c 0
36387.609375 48 m 2
 36387.609375 21.5078125 36409.1171875 0 36435.609375 0 c 0
 36462.1015625 0 36483.609375 21.5078125 36483.609375 48 c 2
 36483.609375 708 l 2
 36483.609375 734.4921875 36462.1015625 756 36435.609375 756 c 2
 36372 756 l 2
 36345.5078125 756 36324 734.4921875 36324 708 c 0
 36324 681.5078125 36345.5078125 660 36372 660 c 2
 36387.609375 660 l 1
 36387.609375 48 l 2
37424 268 m 2
 37424 113.525390625 37524.3173828 -20 37668.53125 -20 c 0
 37809.4492188 -20 37884.875 90.396484375 37982.3085938 233.005859375 c 0
 37996.3652344 253.580078125 38000 258.899414062 38000 273.71875 c 0
 38000 320.529296875 37938.8994141 339.57421875 37912.3554688 300.774414062 c 0
 37810.1337891 151.352539062 37758.5839844 76 37668.53125 76 c 0
 37574.4824219 76 37520 174.103515625 37520 268 c 2
 37520 708 l 2
 37520 734.4921875 37498.4921875 756 37472 756 c 2
 37364 756 l 2
 37337.5078125 756 37316 734.4921875 37316 708 c 0
 37316 681.5078125 37337.5078125 660 37364 660 c 2
 37424 660 l 1
 37424 268 l 2
38068 0 m 2
 38094.4921875 0 38116 21.5078125 38116 48 c 0
 38116 74.4921875 38094.4921875 96 38068 96 c 2
 38000 96 l 1
 38000 708 l 2
 38000 734.4921875 37978.4921875 756 37952 756 c 2
 37844 756 l 2
 37817.5078125 756 37796 734.4921875 37796 708 c 0
 37796 681.5078125 37817.5078125 660 37844 660 c 2
 37904 660 l 1
 37904 48 l 2
 37904 21.5078125 37925.5078125 0 37952 0 c 2
 38068 0 l 2
21216 748 m 2
 21216 721.5078125 21237.5078125 700 21264 700 c 0
 21290.4921875 700 21312 721.5078125 21312 748 c 2
 21312 960 l 1
 21936 960 l 1
 21936 748 l 2
 21936 721.5078125 21957.5078125 700 21984 700 c 0
 22010.4921875 700 22032 721.5078125 22032 748 c 2
 22032 1008 l 2
 22032 1034.4921875 22010.4921875 1056 21984 1056 c 2
 21264 1056 l 2
 21237.5078125 1056 21216 1034.4921875 21216 1008 c 2
 21216 748 l 2
21576 68 m 0
 21576 41.5078125 21597.5078125 20 21624 20 c 0
 21650.4921875 20 21672 41.5078125 21672 68 c 0
 21672 94.4921875 21650.4921875 116 21624 116 c 0
 21597.5078125 116 21576 94.4921875 21576 68 c 0
21576 68 m 2
 21576 41.5078125 21597.5078125 20 21624 20 c 0
 21650.4921875 20 21672 41.5078125 21672 68 c 2
 21672 988 l 2
 21672 1014.4921875 21650.4921875 1036 21624 1036 c 0
 21597.5078125 1036 21576 1014.4921875 21576 988 c 2
 21576 68 l 2
21444 96 m 2
 21417.5078125 96 21396 74.4921875 21396 48 c 0
 21396 21.5078125 21417.5078125 0 21444 0 c 2
 21804 0 l 2
 21830.4921875 0 21852 21.5078125 21852 48 c 0
 21852 74.4921875 21830.4921875 96 21804 96 c 2
 21444 96 l 2
21024 268 m 2
 21024 294.4921875 21002.4921875 316 20976 316 c 0
 20949.5078125 316 20928 294.4921875 20928 268 c 2
 20928 96 l 1
 20236 96 l 2
 20209.5078125 96 20188 74.4921875 20188 48 c 0
 20188 21.5078125 20209.5078125 0 20236 0 c 2
 20976 0 l 2
 21002.4921875 0 21024 21.5078125 21024 48 c 2
 21024 268 l 2
20236 1056 m 2
 20209.5078125 1056 20188 1034.4921875 20188 1008 c 0
 20188 981.5078125 20209.5078125 960 20236 960 c 2
 20496 960 l 2
 20522.4921875 960 20544 981.5078125 20544 1008 c 0
 20544 1034.4921875 20522.4921875 1056 20496 1056 c 2
 20236 1056 l 2
20404 988 m 2
 20404 1014.4921875 20382.4921875 1036 20356 1036 c 0
 20329.5078125 1036 20308 1014.4921875 20308 988 c 2
 20308 68 l 2
 20308 41.5078125 20329.5078125 20 20356 20 c 0
 20382.4921875 20 20404 41.5078125 20404 68 c 2
 20404 988 l 2
19533.6875 0 m 0
 19853.8808594 0 20016 210.677734375 20016 528 c 0
 20016 652.073242188 19991.4335938 769.206054688 19930.7197266 863.2421875 c 0
 19869.9482422 957.368164062 19753.7568359 1056 19533.6875 1056 c 0
 19507.1953125 1056 19485.6875 1034.4921875 19485.6875 1008 c 0
 19485.6875 981.5078125 19507.1953125 960 19533.6875 960 c 0
 19693.2626953 960 19792.0595703 901.026367188 19850.0097656 811.270507812 c 0
 19897.1591797 738.244140625 19920 639.565429688 19920 528 c 0
 19920 345.954101562 19860.4951172 96 19533.6875 96 c 0
 19507.1953125 96 19485.6875 74.4921875 19485.6875 48 c 0
 19485.6875 21.5078125 19507.1953125 0 19533.6875 0 c 0
19376 988 m 2
 19376 1014.4921875 19354.4921875 1036 19328 1036 c 0
 19301.5078125 1036 19280 1014.4921875 19280 988 c 2
 19280 68 l 2
 19280 41.5078125 19301.5078125 20 19328 20 c 0
 19354.4921875 20 19376 41.5078125 19376 68 c 2
 19376 988 l 2
19533.6875 0 m 2
 19560.1796875 0 19581.6875 21.5078125 19581.6875 48 c 0
 19581.6875 74.4921875 19560.1796875 96 19533.6875 96 c 2
 19228 96 l 2
 19201.5078125 96 19180 74.4921875 19180 48 c 0
 19180 21.5078125 19201.5078125 0 19228 0 c 2
 19533.6875 0 l 2
19228 1056 m 2
 19201.5078125 1056 19180 1034.4921875 19180 1008 c 0
 19180 981.5078125 19201.5078125 960 19228 960 c 2
 19533.6875 960 l 2
 19560.1796875 960 19581.6875 981.5078125 19581.6875 1008 c 0
 19581.6875 1034.4921875 19560.1796875 1056 19533.6875 1056 c 2
 19228 1056 l 2
54220.8886719 985.30078125 m 0
 54246.8291016 1016.42871094 54224.5019531 1064 54184 1064 c 0
 54169.1796875 1064 54155.9189453 1057.26855469 54147.1113281 1046.69921875 c 0
 53946.6142578 806.102539062 53712 505.823242188 53712 48 c 0
 53712 21.5078125 53733.5078125 0 53760 0 c 0
 53786.4921875 0 53808 21.5078125 53808 48 c 0
 53808 470.176757812 54021.3857422 745.897460938 54220.8886719 985.30078125 c 0
53720 1076 m 0
 53540.1826172 1076 53365.71875 944.076171875 53365.71875 748 c 0
 53365.71875 721.5078125 53387.2265625 700 53413.71875 700 c 0
 53440.2109375 700 53461.71875 721.5078125 53461.71875 748 c 0
 53461.71875 895.487304688 53600.8544922 980 53720 980 c 0
 53862.9804688 980 53924.0488281 921.296875 54036.15625 921.296875 c 0
 54152.0722656 921.296875 54211.7001953 975.974609375 54217.5195312 981.655273438 c 0
 54248.2226562 1011.62597656 54226.7675781 1064 54184 1064 c 0
 54170.9775391 1064 54159.1591797 1058.80273438 54150.5078125 1050.37109375 c 1
 54151.2441406 1051.30761719 54114.7890625 1017.296875 54036.15625 1017.296875 c 0
 53949.1425781 1017.296875 53875.0244141 1076 53720 1076 c 0
53461.71875 1008 m 2
 53461.71875 1034.4921875 53440.2109375 1056 53413.71875 1056 c 0
 53387.2265625 1056 53365.71875 1034.4921875 53365.71875 1008 c 2
 53365.71875 748 l 2
 53365.71875 721.5078125 53387.2265625 700 53413.71875 700 c 0
 53440.2109375 700 53461.71875 721.5078125 53461.71875 748 c 2
 53461.71875 1008 l 2
47652 96 m 2
 47625.5078125 96 47604 74.4921875 47604 48 c 0
 47604 21.5078125 47625.5078125 0 47652 0 c 2
 48012 0 l 2
 48038.4921875 0 48060 21.5078125 48060 48 c 0
 48060 74.4921875 48038.4921875 96 48012 96 c 2
 47652 96 l 2
48032 1076 m 0
 47889.4580078 1076 47784 958.577148438 47784 808 c 2
 47784 68 l 2
 47784 41.5078125 47805.5078125 20 47832 20 c 0
 47858.4921875 20 47880 41.5078125 47880 68 c 2
 47880 808 l 2
 47880 895.831054688 47933.7832031 980 48032 980 c 0
 48082.0576172 980 48156.5849609 969.936523438 48182.9785156 913.805664062 c 0
 48189.6787109 899.55859375 48194 881.384765625 48194 857.765625 c 0
 48194 831.2734375 48215.5078125 809.765625 48242 809.765625 c 0
 48268.4921875 809.765625 48290 831.2734375 48290 857.765625 c 0
 48290 985.465820312 48202.8251953 1076 48032 1076 c 0
26712 1008 m 2
 26712 1034.4921875 26690.4921875 1056 26664 1056 c 0
 26637.5078125 1056 26616 1034.4921875 26616 1008 c 2
 26616 -232 l 2
 26616 -258.4921875 26637.5078125 -280 26664 -280 c 0
 26690.4921875 -280 26712 -258.4921875 26712 -232 c 2
 26712 1008 l 2
24388 96 m 2
 24361.5078125 96 24340 74.4921875 24340 48 c 0
 24340 21.5078125 24361.5078125 0 24388 0 c 2
 24908 0 l 2
 24934.4921875 0 24956 21.5078125 24956 48 c 0
 24956 74.4921875 24934.4921875 96 24908 96 c 2
 24388 96 l 2
24600 68 m 2
 24600 41.5078125 24621.5078125 20 24648 20 c 0
 24674.4921875 20 24696 41.5078125 24696 68 c 2
 24696 1008 l 2
 24696 1034.4921875 24674.4921875 1056 24648 1056 c 0
 24621.5078125 1056 24600 1034.4921875 24600 1008 c 2
 24600 68 l 2
24648 960 m 2
 24674.4921875 960 24696 981.5078125 24696 1008 c 0
 24696 1034.4921875 24674.4921875 1056 24648 1056 c 2
 24412 1056 l 2
 24385.5078125 1056 24364 1034.4921875 24364 1008 c 0
 24364 981.5078125 24385.5078125 960 24412 960 c 2
 24648 960 l 2
27842.3027344 -173.47265625 m 0
 27760.8701172 -151.653320312 27718.1914062 -49.3798828125 27745.1748047 51.3251953125 c 0
 27772.1650391 152.051757812 27860.2597656 219.26171875 27941.6894531 197.443359375 c 0
 28023.1210938 175.623046875 28065.8046875 73.3671875 28038.8164062 -27.35546875 c 0
 28011.8320312 -128.064453125 27923.7324219 -195.291992188 27842.3027344 -173.47265625 c 0
27966.5361328 290.171875 m 0
 27835.1542969 325.375 27694.1298828 231.736328125 27652.4462891 76.171875 c 0
 27610.7695312 -79.3681640625 27686.0664062 -230.99609375 27817.4560547 -266.201171875 c 0
 27948.8447266 -301.407226562 28089.8681641 -207.743164062 28131.5458984 -52.2021484375 c 0
 28173.2265625 103.353515625 28097.9248047 254.965820312 27966.5361328 290.171875 c 0
27442.3076172 578.537109375 m 0
 27360.8759766 600.356445312 27318.1962891 702.629882812 27345.1796875 803.334960938 c 0
 27372.1650391 904.043945312 27460.2646484 971.271484375 27541.6943359 949.453125 c 0
 27623.1259766 927.6328125 27665.8056641 825.360351562 27638.8212891 724.654296875 c 0
 27611.8369141 623.9453125 27523.7373047 556.717773438 27442.3076172 578.537109375 c 0
27566.5410156 1042.18164062 m 0
 27435.1513672 1077.38671875 27294.1279297 983.723632812 27252.4511719 828.181640625 c 0
 27210.7744141 672.641601562 27286.0712891 521.013671875 27417.4609375 485.80859375 c 0
 27548.8496094 450.602539062 27689.8730469 544.266601562 27731.5507812 699.807617188 c 0
 27773.2275391 855.348632812 27697.9296875 1006.97558594 27566.5410156 1042.18164062 c 0
27309.3007812 -250.06640625 m 2
 27292.9648438 -281.77734375 27316.0800781 -320 27352 -320 c 0
 27370.5917969 -320 27386.7285156 -309.407226562 27394.6992188 -293.93359375 c 2
 28074.6992188 1026.06640625 l 2
 28091.0351562 1057.77734375 28067.9199219 1096 28032 1096 c 0
 28013.4082031 1096 27997.2714844 1085.40722656 27989.3007812 1069.93359375 c 2
 27309.3007812 -250.06640625 l 2
27674.5800781 1033.65820312 m 0
 27595.5107422 1033.65820312 27565.3867188 1043.828125 27554.109375 1043.828125 c 0
 27527.6171875 1043.828125 27506.109375 1022.3203125 27506.109375 995.828125 c 0
 27506.109375 972.671875 27522.5429688 953.322265625 27544.3740234 948.817382812 c 0
 27679.9775391 920.8359375 27927.8046875 947.708007812 28051.8798828 1004.30371094 c 0
 28068.4628906 1011.86816406 28080 1028.59765625 28080 1048 c 0
 28080 1082.94921875 28043.671875 1106.08789062 28012.1201172 1091.69628906 c 0
 27938.8515625 1058.27539062 27796.8017578 1033.65820312 27674.5800781 1033.65820312 c 0
39797.3457031 218.766601562 m 1
 39746.5888672 96.4404296875 39681.6894531 76 39608 76 c 0
 39550.9121094 76 39442 110.756835938 39442 236 c 0
 39442 344.538085938 39477.5166016 383.084960938 39598.8076172 500.145507812 c 0
 39601.4990234 502.743164062 39604.2265625 508.044921875 39606.9912109 508.044921875 c 0
 39618.8505859 489.276367188 39728.6318359 317.750976562 39797.3457031 218.766601562 c 1
39626.2880859 661.314453125 m 1
 39592.359375 720.356445312 39548 804.569335938 39548 865 c 0
 39548 950.796875 39610.5527344 980 39660 980 c 0
 39706.3222656 980 39768 955.659179688 39768 878 c 0
 39768 817.35546875 39733.7148438 768.67578125 39626.2880859 661.314453125 c 1
39861.3427734 130.803710938 m 1
 39942.1884766 26.35546875 40001.6884766 -20 40068 -20 c 0
 40119.8710938 -20 40174.1894531 2.6103515625 40211.8955078 77.4501953125 c 0
 40227.8603516 109.137695312 40204.7363281 147 40169 147 c 0
 40150.2558594 147 40134.0058594 136.232421875 40126.1044922 120.549804688 c 0
 40105.0068359 78.6728515625 40084.8525391 76 40068 76 c 0
 40023.9091797 76 39955.2412109 163.791015625 39905.4541016 232.5625 c 0
 39924.6738281 281.169921875 39961.6083984 360.356445312 40009.2734375 394.791992188 c 0
 40060.5888672 431.865234375 40080 382.200195312 40080 367 c 0
 40080 340.5078125 40101.5078125 319 40128 319 c 0
 40154.4921875 319 40176 340.5078125 40176 367 c 0
 40176 432.172851562 40123.9941406 504.21875 40042.21875 504.21875 c 0
 39944.7080078 504.21875 39876.2675781 397.265625 39841.1552734 325.014648438 c 1
 39839.4755859 327.50390625 39742.7070312 472.122070312 39677.3398438 576.681640625 c 1
 39791.9150391 689.7421875 39864 769.463867188 39864 878 c 0
 39864 994.766601562 39775.6191406 1076 39660 1076 c 0
 39545.390625 1076 39452 992.413085938 39452 865 c 0
 39452 795.750976562 39481.1376953 718.03515625 39555.5800781 591.853515625 c 0
 39547.5332031 584.051757812 39539.7304688 576.520507812 39532.1630859 569.217773438 c 0
 39467.1572266 506.478515625 39417.7128906 460.165039062 39384.8515625 401.34375 c 0
 39358.4121094 354.016601562 39346 301.024414062 39346 236 c 0
 39346 65.8642578125 39485.3759766 -20 39608 -20 c 0
 39692.9853516 -20 39790.1201172 3.0078125 39861.3427734 130.803710938 c 1
60663.984375 378.015625 m 0
 60663.984375 548.516601562 60789.4091797 680.015625 60936 680.015625 c 0
 61082.5732422 680.015625 61208 548.517578125 61208 378.015625 c 0
 61208 207.498046875 61082.5751953 76.015625 60936 76.015625 c 0
 60789.4072266 76.015625 60663.984375 207.499023438 60663.984375 378.015625 c 0
60567.984375 378.015625 m 0
 60567.984375 161.907226562 60729.1240234 -19.984375 60936 -19.984375 c 0
 61142.8623047 -19.984375 61304 161.908203125 61304 378.015625 c 0
 61304 594.107421875 61142.8642578 776.015625 60936 776.015625 c 0
 60729.1220703 776.015625 60567.984375 594.108398438 60567.984375 378.015625 c 0
15598.875 -20 m 0
 15854.5849609 -20 16000.71875 109.2421875 16000.71875 271.34375 c 0
 16000.71875 447.594726562 15871.5986328 536.276367188 15603.3291016 598.330078125 c 0
 15358.4423828 654.98828125 15325.1240234 711.5703125 15313.3085938 743.70703125 c 0
 15307.5253906 759.434570312 15305.03125 778.209960938 15305.03125 801.890625 c 0
 15305.03125 836.928710938 15311.2246094 917.02734375 15432.6503906 957.65234375 c 0
 15475.9794922 972.1484375 15530.1855469 980 15591.84375 980 c 0
 15749.2695312 980 15839.6601562 910.708007812 15899.2978516 794.084960938 c 0
 15907.2460938 778.541015625 15923.4199219 767.890625 15942.0625 767.890625 c 0
 15977.921875 767.890625 16001.0400391 805.993164062 15984.8271484 837.696289062 c 0
 15886.4042969 1030.16894531 15731.3369141 1076 15591.84375 1076 c 0
 15527.7373047 1076 15368.7802734 1069.54199219 15275.1357422 972.248046875 c 0
 15232.6523438 928.109375 15209.03125 869.40625 15209.03125 801.890625 c 0
 15209.03125 738.859375 15221.9560547 667.364257812 15305.3251953 608.538085938 c 0
 15363.8984375 567.208007812 15449.7880859 535.30078125 15581.6396484 504.794921875 c 0
 15827.9960938 447.809570312 15876.1914062 380.96875 15893.2177734 338.9609375 c 0
 15901.1210938 319.462890625 15904.71875 297.485351562 15904.71875 271.34375 c 0
 15904.71875 148.568359375 15775.2363281 76 15598.875 76 c 0
 15426.9521484 76 15285 164.296875 15285 324.703125 c 0
 15285 351.1953125 15263.4921875 372.703125 15237 372.703125 c 0
 15210.5078125 372.703125 15189 351.1953125 15189 324.703125 c 0
 15189 120.556640625 15359.7460938 -20 15598.875 -20 c 0
15436 -152 m 2
 15436 -178.4921875 15457.5078125 -200 15484 -200 c 0
 15510.4921875 -200 15532 -178.4921875 15532 -152 c 2
 15532 1130.265625 l 2
 15532 1156.7578125 15510.4921875 1178.265625 15484 1178.265625 c 0
 15457.5078125 1178.265625 15436 1156.7578125 15436 1130.265625 c 2
 15436 -152 l 2
15660 -152 m 2
 15660 -178.4921875 15681.5078125 -200 15708 -200 c 0
 15734.4921875 -200 15756 -178.4921875 15756 -152 c 2
 15756 1130.265625 l 2
 15756 1156.7578125 15734.4921875 1178.265625 15708 1178.265625 c 0
 15681.5078125 1178.265625 15660 1156.7578125 15660 1130.265625 c 2
 15660 -152 l 2
58480 -204 m 2
 58453.5078125 -204 58432 -225.5078125 58432 -252 c 0
 58432 -278.4921875 58453.5078125 -300 58480 -300 c 2
 59360 -300 l 2
 59386.4921875 -300 59408 -278.4921875 59408 -252 c 0
 59408 -225.5078125 59386.4921875 -204 59360 -204 c 2
 58480 -204 l 2
3152 48 m 0
 3152 21.5078125 3173.5078125 0 3200 0 c 0
 3223.125 0 3242.453125 16.388671875 3246.9921875 38.17578125 c 2
 3446.9921875 998.17578125 l 2
 3453.19433594 1027.94824219 3430.43359375 1056 3400 1056 c 0
 3376.875 1056 3357.546875 1039.61132812 3353.0078125 1017.82421875 c 2
 3153.0078125 57.82421875 l 2
 3153.0078125 54.65234375 3152 51.3662109375 3152 48 c 0
3512 48 m 0
 3512 21.5078125 3533.5078125 0 3560 0 c 0
 3583.125 0 3602.453125 16.388671875 3606.9921875 38.17578125 c 2
 3806.9921875 998.17578125 l 2
 3813.19433594 1027.94824219 3790.43359375 1056 3760 1056 c 0
 3736.875 1056 3717.546875 1039.61132812 3713.0078125 1017.82421875 c 2
 3513.0078125 57.82421875 l 2
 3513.0078125 54.65234375 3512 51.3662109375 3512 48 c 0
3100 736 m 2
 3073.5078125 736 3052 714.4921875 3052 688 c 0
 3052 661.5078125 3073.5078125 640 3100 640 c 2
 3860 640 l 2
 3886.4921875 640 3908 661.5078125 3908 688 c 0
 3908 714.4921875 3886.4921875 736 3860 736 c 2
 3100 736 l 2
3100 416 m 2
 3073.5078125 416 3052 394.4921875 3052 368 c 0
 3052 341.5078125 3073.5078125 320 3100 320 c 2
 3860 320 l 2
 3886.4921875 320 3908 341.5078125 3908 368 c 0
 3908 394.4921875 3886.4921875 416 3860 416 c 2
 3100 416 l 2
17576 96 m 2
 17549.5078125 96 17528 74.4921875 17528 48 c 0
 17528 21.5078125 17549.5078125 0 17576 0 c 2
 17912 0 l 2
 17938.4921875 0 17960 21.5078125 17960 48 c 0
 17960 74.4921875 17938.4921875 96 17912 96 c 2
 17576 96 l 2
17712 368 m 1
 17265.0957031 368 l 1
 17712 880.0234375 l 1
 17712 368 l 1
17808 272 m 1
 17932 272 l 2
 17958.4921875 272 17980 293.5078125 17980 320 c 0
 17980 346.4921875 17958.4921875 368 17932 368 c 2
 17808 368 l 1
 17808 1008 l 2
 17808 1052.03613281 17752.9042969 1072.85253906 17723.828125 1039.54003906 c 2
 17123.328125 351.540039062 l 2
 17096.3369141 320.615234375 17118.5019531 272 17159.5 272 c 2
 17712 272 l 1
 17712 48 l 2
 17712 21.5078125 17733.5078125 0 17760 0 c 0
 17786.4921875 0 17808 21.5078125 17808 48 c 2
 17808 272 l 1
28980 400 m 2
 29006.4921875 400 29028 421.5078125 29028 448 c 0
 29028 474.4921875 29006.4921875 496 28980 496 c 2
 28380 496 l 2
 28353.5078125 496 28332 474.4921875 28332 448 c 0
 28332 421.5078125 28353.5078125 400 28380 400 c 2
 28980 400 l 2
18899.4951172 4.5947265625 m 2
 18931.1044922 -10.37890625 18968 12.7587890625 18968 48 c 0
 18968 67.158203125 18956.7519531 83.7099609375 18940.5048828 91.4052734375 c 2
 18272.1396484 408 l 1
 18940.5048828 724.594726562 l 2
 18956.7519531 732.290039062 18968 748.841796875 18968 768 c 0
 18968 803.2421875 18931.1044922 826.377929688 18899.4951172 811.405273438 c 2
 18139.4951172 451.405273438 l 2
 18102.984375 434.111328125 18102.984375 381.888671875 18139.4951172 364.594726562 c 2
 18899.4951172 4.5947265625 l 2
42452.5048828 831.405273438 m 2
 42420.8955078 846.37890625 42384 823.241210938 42384 788 c 0
 42384 768.841796875 42395.2480469 752.290039062 42411.4951172 744.594726562 c 2
 43079.8603516 428 l 1
 42411.4951172 111.405273438 l 2
 42395.2480469 103.709960938 42384 87.158203125 42384 68 c 0
 42384 32.7578125 42420.8955078 9.6220703125 42452.5048828 24.5947265625 c 2
 43212.5048828 384.594726562 l 2
 43249.015625 401.888671875 43249.015625 454.111328125 43212.5048828 471.405273438 c 2
 42452.5048828 831.405273438 l 2
52550.5078125 72.134765625 m 2
 52531.9707031 40.35546875 52555.0068359 0 52592 0 c 0
 52609.6962891 0 52625.1689453 9.5966796875 52633.4921875 23.865234375 c 2
 53193.4921875 983.865234375 l 2
 53212.0292969 1015.64453125 53188.9931641 1056 53152 1056 c 0
 53134.3037109 1056 53118.8310547 1046.40332031 53110.5078125 1032.13476562 c 2
 52550.5078125 72.134765625 l 2
34648 1056 m 2
 34621.5078125 1056 34600 1034.4921875 34600 1008 c 0
 34600 981.5078125 34621.5078125 960 34648 960 c 2
 34800 960 l 1
 34800 -144 l 1
 34648 -144 l 2
 34621.5078125 -144 34600 -165.5078125 34600 -192 c 0
 34600 -218.4921875 34621.5078125 -240 34648 -240 c 2
 34848 -240 l 2
 34874.4921875 -240 34896 -218.4921875 34896 -192 c 2
 34896 1008 l 2
 34896 1034.4921875 34874.4921875 1056 34848 1056 c 2
 34648 1056 l 2
22352 1056 m 0
 22315.0078125 1056 22291.9697266 1015.64453125 22310.5078125 983.865234375 c 2
 22870.5078125 23.865234375 l 2
 22878.8310547 9.5966796875 22894.3037109 0 22912 0 c 0
 22948.9921875 0 22972.0302734 40.35546875 22953.4921875 72.134765625 c 2
 22393.4921875 1032.13476562 l 2
 22385.1689453 1046.40332031 22369.6962891 1056 22352 1056 c 0
46582.0097656 671.259765625 m 2
 46564.3623047 639.494140625 46587.4375 600 46624 600 c 0
 46642.0556641 600 46657.7958984 609.990234375 46665.9902344 624.740234375 c 2
 46824 909.158203125 l 1
 46982.0097656 624.740234375 l 2
 46990.2041016 609.990234375 47005.9443359 600 47024 600 c 0
 47060.5615234 600 47083.6376953 639.494140625 47065.9902344 671.259765625 c 2
 46865.9902344 1031.25976562 l 2
 46847.7177734 1064.1484375 46800.2822266 1064.1484375 46782.0097656 1031.25976562 c 2
 46582.0097656 671.259765625 l 2
29608 76 m 0
 29469.2792969 76 29336 156.125976562 29336 268 c 0
 29336 294.4921875 29314.4921875 316 29288 316 c 0
 29261.5078125 316 29240 294.4921875 29240 268 c 0
 29240 101.092773438 29413.5175781 -20 29608 -20 c 0
 29812.6875 -20 29976.0078125 168.564453125 29976.0078125 385.563476562 c 0
 29976.0078125 590.750976562 29813.3417969 748 29608 748 c 0
 29521.375 748 29364.7363281 731.868164062 29278.8085938 588.642578125 c 0
 29259.7441406 556.865234375 29282.7529297 516 29320 516 c 0
 29337.4853516 516 29352.7988281 525.369140625 29361.1914062 539.357421875 c 0
 29386.2275391 581.088867188 29443.6308594 652 29608 652 c 0
 29762.7861328 652 29879.0332031 537.234375 29880.0009766 387.68359375 c 0
 29880.0107422 223.38671875 29760.4970703 76 29608 76 c 0
30376 556 m 2
 30349.5078125 556 30328 534.4921875 30328 508 c 0
 30328 481.5078125 30349.5078125 460 30376 460 c 2
 31016 460 l 2
 31042.4921875 460 31064 481.5078125 31064 508 c 0
 31064 534.4921875 31042.4921875 556 31016 556 c 2
 30376 556 l 2
30376 336 m 2
 30349.5078125 336 30328 314.4921875 30328 288 c 0
 30328 261.5078125 30349.5078125 240 30376 240 c 2
 31016 240 l 2
 31042.4921875 240 31064 261.5078125 31064 288 c 0
 31064 314.4921875 31042.4921875 336 31016 336 c 2
 30376 336 l 2
35762 680 m 0
 35905.6367188 680 35999.34375 574.329101562 36019.7841797 458 c 1
 35517.6347656 458 l 1
 35543.5800781 599.822265625 35654.8466797 680 35762 680 c 0
36020.2578125 226.067382812 m 0
 36018.8427734 223.59375 35927.3173828 76 35778 76 c 0
 35631.8173828 76 35524.3505859 199.120117188 35512.9882812 362 c 1
 36072 362 l 2
 36098.4921875 362 36120 383.5078125 36120 410 c 0
 36120 586.744140625 35986.8154297 776 35762 776 c 0
 35584.0712891 776 35416.0009766 625.200195312 35416.0009766 394.845703125 c 0
 35414.2353516 155.780273438 35575.0595703 -20 35778 -20 c 0
 35872.0322266 -20 35947.0585938 20.404296875 35999.9794922 62.8505859375 c 0
 36066.3173828 116.056640625 36100.9316406 173.9375 36102.6171875 176.745117188 c 0
 36121.7011719 208.522460938 36098.6933594 249.40625 36061.4375 249.40625 c 0
 36043.9599609 249.40625 36028.6513672 240.044921875 36020.2578125 226.067382812 c 0
54741.671875 730.65625 m 1
 54723.671875 712.65625 l 1
 54705.671875 730.65625 l 1
 54723.671875 748.65625 l 1
 54741.671875 730.65625 l 1
54645.671875 730.65625 m 0
 54645.671875 687.607421875 54680.6230469 652.65625 54723.671875 652.65625 c 0
 54766.7207031 652.65625 54801.671875 687.607421875 54801.671875 730.65625 c 0
 54801.671875 773.705078125 54766.7207031 808.65625 54723.671875 808.65625 c 0
 54680.6230469 808.65625 54645.671875 773.705078125 54645.671875 730.65625 c 0
54693.671875 730.657226562 m 0
 54693.671875 747.225585938 54707.1035156 760.657226562 54723.671875 760.657226562 c 0
 54740.2402344 760.657226562 54753.671875 747.225585938 54753.671875 730.657226562 c 0
 54753.671875 714.088867188 54740.2402344 700.657226562 54723.671875 700.657226562 c 0
 54707.1035156 700.657226562 54693.671875 714.088867188 54693.671875 730.657226562 c 0
54930 982 m 0
 55027.8085938 982 55121.046875 912.20703125 55121.046875 851.8125 c 0
 55121.046875 785.952148438 55098.5820312 740.229492188 55044.5576172 698.962890625 c 0
 54955.9521484 631.284179688 54830 521.880859375 54830 325 c 0
 54830 298.5078125 54851.5078125 277 54878 277 c 0
 54904.4921875 277 54926 298.5078125 54926 325 c 0
 54926 464.317382812 55004.3457031 547.463867188 55102.7548828 622.630859375 c 0
 55201.0175781 697.688476562 55217.046875 785.975585938 55217.046875 851.8125 c 0
 55217.046875 973.642578125 55074.6826172 1078 54930 1078 c 0
 54736.2470703 1078 54546.3212891 889.748046875 54655.4238281 692.891601562 c 0
 54663.6113281 678.119140625 54679.3652344 668.109375 54697.4375 668.109375 c 0
 54733.9785156 668.109375 54757.0556641 707.561523438 54739.4511719 739.327148438 c 0
 54725.0800781 765.256835938 54719.5791016 788.831054688 54719.5791016 810.284179688 c 0
 54719.5791016 905.334960938 54830.5292969 982 54930 982 c 0
29336 268 m 1
 29318 250 l 1
 29300 268 l 1
 29318 286 l 1
 29336 268 l 1
29240 268 m 0
 29240 224.951171875 29274.9511719 190 29318 190 c 0
 29361.0488281 190 29396 224.951171875 29396 268 c 0
 29396 311.068359375 29361.0263672 346 29318 346 c 0
 29274.9736328 346 29240 311.068359375 29240 268 c 0
29288 268.006835938 m 0
 29288 284.575195312 29301.4316406 298.006835938 29318 298.006835938 c 0
 29334.5683594 298.006835938 29348 284.575195312 29348 268.006835938 c 0
 29348 251.438476562 29334.5683594 238.006835938 29318 238.006835938 c 0
 29301.4316406 238.006835938 29288 251.438476562 29288 268.006835938 c 0
48230 858 m 1
 48212 840 l 1
 48194 858 l 1
 48212 876 l 1
 48230 858 l 1
48134 858 m 0
 48134 814.973632812 48168.9316406 780 48212 780 c 0
 48255.0488281 780 48290 814.951171875 48290 858 c 0
 48290 901.068359375 48255.0263672 936 48212 936 c 0
 48168.953125 936 48134 901.046875 48134 858 c 0
48181.9921875 858.0078125 m 0
 48181.9921875 874.576171875 48195.4238281 888.0078125 48211.9921875 888.0078125 c 0
 48228.5605469 888.0078125 48241.9921875 874.576171875 48241.9921875 858.0078125 c 0
 48241.9921875 841.439453125 48228.5605469 828.0078125 48211.9921875 828.0078125 c 0
 48195.4238281 828.0078125 48181.9921875 841.439453125 48181.9921875 858.0078125 c 0
756 818 m 1
 738 800 l 1
 720 818 l 1
 738 836 l 1
 756 818 l 1
660 818 m 0
 660 774.951171875 694.951171875 740 738 740 c 0
 781.048828125 740 816 774.951171875 816 818 c 0
 816 861.048828125 781.048828125 896 738 896 c 0
 694.951171875 896 660 861.048828125 660 818 c 0
708 817.998046875 m 0
 708 834.56640625 721.431640625 847.998046875 738 847.998046875 c 0
 754.568359375 847.998046875 768 834.56640625 768 817.998046875 c 0
 768 801.4296875 754.568359375 787.998046875 738 787.998046875 c 0
 721.431640625 787.998046875 708 801.4296875 708 817.998046875 c 0
14908 1026.671875 m 0
 14761.4599609 1026.671875 14660 925.595703125 14660 818.671875 c 2
 14660 568 l 2
 14660 561.052734375 14660 552.670898438 14639.2324219 537.088867188 c 2
 14479.2402344 417.094726562 l 2
 14442.4619141 389.510742188 14462.2304688 330.671875 14508 330.671875 c 0
 14518.7841797 330.671875 14528.7421875 334.235351562 14536.7597656 340.249023438 c 2
 14696.7675781 460.254882812 l 2
 14716.5820312 475.122070312 14756 508.012695312 14756 568 c 2
 14756 818.671875 l 2
 14756 871.313476562 14814.3427734 930.671875 14908 930.671875 c 0
 14934.4921875 930.671875 14956 952.1796875 14956 978.671875 c 0
 14956 1005.1640625 14934.4921875 1026.671875 14908 1026.671875 c 0
29320 516 m 0
 29346.1982422 516 29367.5224609 537.033203125 29367.9921875 563.120117188 c 2
 29375.1435547 960 l 1
 29896 960 l 2
 29922.4921875 960 29944 981.5078125 29944 1008 c 0
 29944 1034.4921875 29922.4921875 1056 29896 1056 c 2
 29328 1056 l 2
 29301.8017578 1056 29280.4775391 1034.96679688 29280.0078125 1008.87988281 c 2
 29272.0078125 564.879882812 l 2
 29272.0078125 537.5078125 29293.5078125 516 29320 516 c 0
47692 756 m 2
 47665.5078125 756 47644 734.4921875 47644 708 c 0
 47644 681.5078125 47665.5078125 660 47692 660 c 2
 47952 660 l 2
 47978.4921875 660 48000 681.5078125 48000 708 c 0
 48000 734.4921875 47978.4921875 756 47952 756 c 2
 47692 756 l 2
38600 416 m 0
 38456.2646484 416 38392 292.252929688 38392 208 c 0
 38392 181.5078125 38413.5078125 160 38440 160 c 0
 38466.4921875 160 38488 181.5078125 38488 208 c 0
 38488 224.841796875 38502.3681641 320 38600 320 c 0
 38695.3417969 320 38779.5107422 160 38920 160 c 0
 39063.796875 160 39128 286.517578125 39128 368 c 0
 39128 394.4921875 39106.4921875 416 39080 416 c 0
 39053.5078125 416 39032 394.4921875 39032 368 c 0
 39032 366.974609375 39029.5791016 310.032226562 38985.6962891 276.4765625 c 0
 38970.0800781 264.53515625 38949.8779297 256 38920 256 c 0
 38824.6582031 256 38740.4892578 416 38600 416 c 0
45089.5927734 1276.78027344 m 0
 45088.6425781 1275.56738281 45041.1748047 1216 44948 1216 c 0
 44899.4296875 1216 44869.6611328 1230.83984375 44829.4199219 1250.9609375 c 0
 44789.6611328 1270.83984375 44739.4296875 1296 44668 1296 c 0
 44525.0341797 1296 44453.1943359 1201.58300781 44449.5771484 1196.75976562 c 0
 44425.9667969 1165.27929688 44448.5966797 1120 44488 1120 c 0
 44503.6992188 1120 44517.6474609 1127.55273438 44526.4072266 1139.21972656 c 0
 44527.3574219 1140.43261719 44574.8251953 1200 44668 1200 c 0
 44716.5703125 1200 44746.3388672 1185.16015625 44786.5800781 1165.0390625 c 0
 44826.3388672 1145.16015625 44876.5703125 1120 44948 1120 c 0
 45090.9658203 1120 45162.8056641 1214.41699219 45166.4228516 1219.24023438 c 0
 45190.0332031 1250.72070312 45167.4033203 1296 45128 1296 c 0
 45112.3007812 1296 45098.3525391 1288.44726562 45089.5927734 1276.78027344 c 0
41507.046875 317.203125 m 0
 41507.046875 444.935546875 41626.0615234 557.328125 41784 557.328125 c 0
 41941.9384766 557.328125 42060.953125 444.935546875 42060.953125 317.203125 c 0
 42060.953125 189.470703125 41941.9384766 77.078125 41784 77.078125 c 0
 41626.0615234 77.078125 41507.046875 189.470703125 41507.046875 317.203125 c 0
41411.046875 317.203125 m 0
 41411.046875 126.685546875 41583.0009766 -18.921875 41784 -18.921875 c 0
 41984.9990234 -18.921875 42156.953125 126.685546875 42156.953125 317.203125 c 0
 42156.953125 507.720703125 41984.9990234 653.328125 41784 653.328125 c 0
 41583.0009766 653.328125 41411.046875 507.720703125 41411.046875 317.203125 c 0
41821.984375 980 m 0
 41972.9804688 980 42046.9052734 855.731445312 42048.0966797 853.4296875 c 0
 42056.3681641 838.961914062 42071.9521484 829.203125 42089.796875 829.203125 c 0
 42126.6113281 829.203125 42149.6650391 869.201171875 42131.4970703 900.9765625 c 0
 42129.3447266 904.7421875 42086.9804688 979.3203125 41995.625 1030.76074219 c 0
 41949.8837891 1056.515625 41891.6542969 1076 41821.984375 1076 c 0
 41613.2695312 1076 41370.796875 903.583007812 41370.796875 524.3125 c 0
 41370.796875 445.840820312 41372.8525391 333.466796875 41439.3837891 188.559570312 c 0
 41446.9716797 172.034179688 41463.6699219 160.546875 41483.03125 160.546875 c 0
 41518.0302734 160.546875 41541.1699219 196.971679688 41526.6787109 228.534179688 c 0
 41467.5224609 357.376953125 41466.796875 448.221679688 41466.796875 524.3125 c 0
 41466.796875 851.588867188 41667.3964844 980 41821.984375 980 c 0
55876 -20 m 0
 56039.9775391 -20 56179.1708984 110.374023438 56240.8232422 270.805664062 c 0
 56240.8232422 276.14453125 56244 281.942382812 56244 288 c 0
 56244 314.4921875 56222.4921875 336 56196 336 c 0
 56175.5664062 336 56158.0976562 323.204101562 56151.1767578 305.194335938 c 0
 56106.5849609 189.159179688 56002.7451172 76 55876 76 c 0
 55708.4667969 76 55584 277.811523438 55584 528 c 0
 55584 776.354492188 55695.0996094 980 55856 980 c 0
 55947.3378906 980 56015.3291016 945.033203125 56065.3261719 892.604492188 c 0
 56105.5029297 850.47265625 56134.0771484 795.9609375 56149.7207031 739.228515625 c 0
 56155.3183594 718.927734375 56173.9296875 704 56196 704 c 0
 56227.7285156 704 56250.6738281 734.331054688 56242.2792969 764.771484375 c 0
 56194.6220703 937.599609375 56057.8398438 1076 55856 1076 c 0
 55642.0283203 1076 55488 840.823242188 55488 528 c 0
 55488 217.588867188 55654.8623047 -20 55876 -20 c 0
56244 1008 m 2
 56244 1034.4921875 56222.4921875 1056 56196 1056 c 0
 56169.5078125 1056 56148 1034.4921875 56148 1008 c 2
 56148 752 l 2
 56148 725.5078125 56169.5078125 704 56196 704 c 0
 56222.4921875 704 56244 725.5078125 56244 752 c 2
 56244 1008 l 2
56148 48 m 2
 56148 21.5078125 56169.5078125 0 56196 0 c 0
 56222.4921875 0 56244 21.5078125 56244 48 c 2
 56244 388 l 2
 56244 414.4921875 56222.4921875 436 56196 436 c 0
 56169.5078125 436 56148 414.4921875 56148 388 c 2
 56148 48 l 2
56276 340 m 2
 56302.4921875 340 56324 361.5078125 56324 388 c 0
 56324 414.4921875 56302.4921875 436 56276 436 c 2
 56016 436 l 2
 55989.5078125 436 55968 414.4921875 55968 388 c 0
 55968 361.5078125 55989.5078125 340 56016 340 c 2
 56276 340 l 2
51864 560 m 0
 51888.8632812 560 51909.3369141 578.9453125 51911.7597656 603.174804688 c 0
 51952 1005.57421875 51952 1005.57421875 51952 1008 c 0
 51952 1034.4921875 51930.4921875 1056 51904 1056 c 0
 51824 1056 51824 1056 51824 1056 c 2
 51799.5302734 1056 51773.7587891 1036.22753906 51776.2402344 1003.17480469 c 2
 51816.2402344 603.174804688 l 2
 51818.6630859 578.9453125 51839.1367188 560 51864 560 c 0
51823.9951172 1008 m 1
 51903.9951172 1008 l 1
 51863.9951172 608 l 1
 51823.9951172 1008 l 1
60380.7236328 -217.032226562 m 0
 60427.9414062 -156.91015625 60427.9208984 -67.0576171875 60380.7246094 -6.9609375 c 0
 60312.0830078 80.4423828125 60162.1728516 96 60038 96 c 0
 59914.1308594 96 59763.9804688 80.53515625 59695.2714844 -6.9619140625 c 0
 59648.0732422 -67.06640625 59648.0673828 -156.919921875 59695.2714844 -217.03125 c 0
 59763.9160156 -304.4453125 59913.8457031 -320 60038 -320 c 0
 60161.6953125 -320 60311.9697266 -304.578125 60380.7236328 -217.032226562 c 0
60320 -112 m 0
 60320 -135.4609375 60313.3945312 -166.209960938 60259.6357422 -190.645507812 c 0
 60217.6328125 -209.737304688 60146.2294922 -224 60038 -224 c 0
 59999.8515625 -224 59822.4375 -223.552734375 59770.8134766 -157.8125 c 0
 59760.4365234 -144.598632812 59756 -130.408203125 59756 -112 c 0
 59756 -88.4951171875 59762.6318359 -57.7685546875 59816.3564453 -33.349609375 c 0
 59858.3574219 -14.2607421875 59929.7626953 0 60038 0 c 0
 60076.1621094 0 60253.5625 -0.44921875 60305.1845703 -66.1826171875 c 0
 60315.5615234 -79.3955078125 60320 -93.5869140625 60320 -112 c 0
59756 498.015625 m 0
 59756 598.553710938 59837.4501953 680.015625 59938 680.015625 c 0
 60038.5351562 680.015625 60120 598.55078125 60120 498.015625 c 0
 60120 397.465820312 60038.5380859 316.015625 59938 316.015625 c 0
 59837.4472656 316.015625 59756 397.462890625 59756 498.015625 c 0
59660 498.015625 m 0
 59660 344.505859375 59784.4902344 220.015625 59938 220.015625 c 0
 60091.4931641 220.015625 60216 344.502929688 60216 498.015625 c 0
 60216 651.51171875 60091.4960938 776.015625 59938 776.015625 c 0
 59784.4873047 776.015625 59660 651.508789062 59660 498.015625 c 0
60120 498 m 0
 60120 471.5078125 60141.5078125 450 60168 450 c 0
 60194.4921875 450 60216 471.5078125 60216 498 c 0
 60216 630.275390625 60245.921875 644.747070312 60268.65625 652.518554688 c 0
 60282.0205078 657.086914062 60301.6445312 660 60328 660 c 0
 60354.4921875 660 60376 681.5078125 60376 708 c 0
 60376 734.4921875 60354.4921875 756 60328 756 c 0
 60289.3769531 756 60199.7548828 754.013671875 60153.7832031 675.653320312 c 0
 60128.3779297 632.346679688 60120 573.889648438 60120 498 c 0
59938 220 m 0
 59964.4921875 220 59986 241.5078125 59986 268 c 0
 59986 294.4921875 59964.4921875 316 59938 316 c 0
 59876.3789062 316 59752.4931641 310.954101562 59705.4160156 226.830078125 c 0
 59684.0888672 188.717773438 59679.9208984 131.729492188 59707.1738281 89.2705078125 c 0
 59750.5498047 21.693359375 59858.6816406 0 60038 0 c 0
 60064.4921875 0 60086 21.5078125 60086 48 c 0
 60086 74.4921875 60064.4921875 96 60038 96 c 0
 59940.4755859 96 59874.109375 103.627929688 59834.5908203 115.30859375 c 0
 59784.140625 130.220703125 59784.140625 147.262695312 59784.140625 157.125 c 0
 59784.140625 177.962890625 59792.1845703 190.489257812 59815.2978516 201.225585938 c 0
 59838.03125 211.787109375 59878.5488281 220 59938 220 c 0
61564 756 m 2
 61537.5078125 756 61516 734.4921875 61516 708 c 0
 61516 681.5078125 61537.5078125 660 61564 660 c 2
 61696 660 l 2
 61722.4921875 660 61744 681.5078125 61744 708 c 0
 61744 734.4921875 61722.4921875 756 61696 756 c 2
 61564 756 l 2
62192 756 m 2
 62165.5078125 756 62144 734.4921875 62144 708 c 0
 62144 681.5078125 62165.5078125 660 62192 660 c 2
 62324 660 l 2
 62350.4921875 660 62372 681.5078125 62372 708 c 0
 62372 734.4921875 62350.4921875 756 62324 756 c 2
 62192 756 l 2
61874 756 m 2
 61847.5078125 756 61826 734.4921875 61826 708 c 0
 61826 681.5078125 61847.5078125 660 61874 660 c 2
 62014 660 l 2
 62040.4921875 660 62062 681.5078125 62062 708 c 0
 62062 734.4921875 62040.4921875 756 62014 756 c 2
 61874 756 l 2
62104 0 m 0
 62126.1171875 0 62144.7597656 14.9912109375 62150.3144531 35.357421875 c 2
 62330.3144531 695.357421875 l 2
 62338.609375 725.771484375 62315.6708984 756 62284 756 c 0
 62261.8828125 756 62243.2402344 741.008789062 62237.6855469 720.642578125 c 2
 62106.0195312 237.868164062 l 1
 61990.5703125 699.663085938 l 2
 61985.3544922 720.526367188 61966.4697266 736 61944 736 c 0
 61921.5302734 736 61902.6455078 720.526367188 61897.4296875 699.663085938 c 2
 61781.9804688 237.868164062 l 1
 61650.3144531 720.642578125 l 2
 61644.7597656 741.008789062 61626.1171875 756 61604 756 c 0
 61572.3291016 756 61549.390625 725.771484375 61557.6855469 695.357421875 c 2
 61737.6855469 35.357421875 l 2
 61743.2402344 14.9912109375 61761.8828125 0 61784 0 c 0
 61806.4697266 0 61825.3544922 15.4736328125 61830.5703125 36.3369140625 c 2
 61944 490.053710938 l 1
 62057.4296875 36.3369140625 l 2
 62062.6455078 15.4736328125 62081.5302734 0 62104 0 c 0
62592 296 m 2
 62565.5078125 296 62544 274.4921875 62544 248 c 0
 62544 221.5078125 62565.5078125 200 62592 200 c 2
 63312 200 l 2
 63338.4921875 200 63360 221.5078125 63360 248 c 0
 63360 274.4921875 63338.4921875 296 63312 296 c 2
 62592 296 l 2
62591.9951172 248.001953125 m 1
 63311.9951172 248.001953125 l 1025
62592 556 m 2
 62565.5078125 556 62544 534.4921875 62544 508 c 0
 62544 481.5078125 62565.5078125 460 62592 460 c 2
 63312 460 l 2
 63338.4921875 460 63360 481.5078125 63360 508 c 0
 63360 534.4921875 63338.4921875 556 63312 556 c 2
 62592 556 l 2
62591.9951172 508 m 1
 63311.9951172 508 l 1025
62544 -272 m 0
 62544 -298.4921875 62565.5078125 -320 62592 -320 c 0
 62612.6552734 -320 62630.28125 -306.924804688 62637.0449219 -288.606445312 c 2
 63117.0449219 1011.39355469 l 2
 63128.5419922 1042.53027344 63105.4433594 1076 63072 1076 c 0
 63051.3447266 1076 63033.71875 1062.92480469 63026.9550781 1044.60644531 c 2
 62546.9550781 -255.393554688 l 2
 62546.9550781 -260.569335938 62544 -266.1640625 62544 -272 c 0
62591.9951172 -272.000976562 m 1
 63071.9951172 1027.99902344 l 1025
62784 -272 m 0
 62784 -298.4921875 62805.5078125 -320 62832 -320 c 0
 62852.6552734 -320 62870.28125 -306.924804688 62877.0449219 -288.606445312 c 2
 63357.0449219 1011.39355469 l 2
 63368.5419922 1042.53027344 63345.4433594 1076 63312 1076 c 0
 63291.3447266 1076 63273.71875 1062.92480469 63266.9550781 1044.60644531 c 2
 62786.9550781 -255.393554688 l 2
 62786.9550781 -260.569335938 62784 -266.1640625 62784 -272 c 0
62831.9951172 -272.000976562 m 1
 63311.9951172 1027.99902344 l 1025
40774 78.015625 m 1
 40777.1269531 78.015625 40778 79.142578125 40778 78.015625 c 0
 40774.8603516 76.015625 40774 78.015625 40774 78.015625 c 1
40678 78.015625 m 0
 40678 23.9052734375 40721.9208984 -19.984375 40776 -19.984375 c 0
 40830.0791016 -19.984375 40874 23.9052734375 40874 78.015625 c 0
 40874 132.107421875 40830.0917969 176.015625 40776 176.015625 c 0
 40721.9082031 176.015625 40678 132.107421875 40678 78.015625 c 0
40726 78.0087890625 m 0
 40726 105.623046875 40748.3857422 128.008789062 40776 128.008789062 c 0
 40803.6142578 128.008789062 40826 105.623046875 40826 78.0087890625 c 0
 40826 50.39453125 40803.6142578 28.0087890625 40776 28.0087890625 c 0
 40748.3857422 28.0087890625 40726 50.39453125 40726 78.0087890625 c 0
54886 78.015625 m 1
 54886 78.015625 54890 79.142578125 54890 78.015625 c 0
 54886.8603516 76.015625 54886 78.015625 54886 78.015625 c 1
54790 78.015625 m 0
 54790 23.9052734375 54833.9208984 -19.984375 54888 -19.984375 c 0
 54942.0791016 -19.984375 54986 23.9052734375 54986 78.015625 c 0
 54986 132.107421875 54942.0917969 176.015625 54888 176.015625 c 0
 54833.9082031 176.015625 54790 132.107421875 54790 78.015625 c 0
54838 78.009765625 m 0
 54838 105.624023438 54860.3857422 128.009765625 54888 128.009765625 c 0
 54915.6142578 128.009765625 54938 105.624023438 54938 78.009765625 c 0
 54938 50.3955078125 54915.6142578 28.009765625 54888 28.009765625 c 0
 54860.3857422 28.009765625 54838 50.3955078125 54838 78.009765625 c 0
16586 78 m 0
 16586 -0.5244140625 16480.3818359 -89.560546875 16446.8535156 -112.418945312 c 0
 16408.1601562 -139.020507812 16427.2441406 -200 16474 -200 c 0
 16484.0722656 -200 16493.4238281 -196.891601562 16501.1464844 -191.581054688 c 0
 16514.6044922 -182.329101562 16682 -64.3828125 16682 78 c 0
 16682 104.4921875 16660.4921875 126 16634 126 c 0
 16607.5078125 126 16586 104.4921875 16586 78 c 0
31536 1168 m 0
 31536 1135.203125 31568.2695312 1112.15039062 31599.1708984 1122.45117188 c 2
 31839.1708984 1202.45117188 l 2
 31858.2373047 1208.80664062 31872 1226.80859375 31872 1248 c 0
 31872 1280.796875 31839.7304688 1303.84960938 31808.8291016 1293.54882812 c 2
 31568.8291016 1213.54882812 l 2
 31549.7626953 1207.19335938 31536 1189.19140625 31536 1168 c 0
33488 1208 m 1
 33480 1200 l 1
 33472 1208 l 1
 33480 1216 l 1
 33488 1208 l 1
33392 1208 m 0
 33392 1159.42871094 33431.4287109 1120 33480 1120 c 0
 33528.5712891 1120 33568 1159.42871094 33568 1208 c 0
 33568 1256.57128906 33528.5712891 1296 33480 1296 c 0
 33431.4287109 1296 33392 1256.57128906 33392 1208 c 0
33440 1208 m 0
 33440 1230.09179688 33457.9082031 1248 33480 1248 c 0
 33502.0917969 1248 33520 1230.09179688 33520 1208 c 0
 33520 1185.90820312 33502.0917969 1168 33480 1168 c 0
 33457.9082031 1168 33440 1185.90820312 33440 1208 c 0
33968 1208 m 1
 33960 1200 l 1
 33952 1208 l 1
 33960 1216 l 1
 33968 1208 l 1
33872 1208 m 0
 33872 1159.42871094 33911.4287109 1120 33960 1120 c 0
 34008.5712891 1120 34048 1159.42871094 34048 1208 c 0
 34048 1256.57128906 34008.5712891 1296 33960 1296 c 0
 33911.4287109 1296 33872 1256.57128906 33872 1208 c 0
33920 1208 m 0
 33920 1230.09179688 33937.9082031 1248 33960 1248 c 0
 33982.0917969 1248 34000 1230.09179688 34000 1208 c 0
 34000 1185.90820312 33982.0917969 1168 33960 1168 c 0
 33937.9082031 1168 33920 1185.90820312 33920 1208 c 0
14908 -173.328125 m 0
 14814.3457031 -173.328125 14756 -113.97265625 14756 -61.328125 c 2
 14756 189.34375 l 2
 14756 249.297851562 14716.6298828 282.185546875 14696.7675781 297.088867188 c 2
 14536.7597656 417.094726562 l 2
 14505.2792969 440.705078125 14460 418.075195312 14460 378.671875 c 0
 14460 362.963867188 14467.5615234 349.0078125 14479.2402344 340.249023438 c 2
 14639.2324219 220.254882812 l 2
 14647.7148438 213.890625 14652.7724609 208.590820312 14655.4785156 204.686523438 c 0
 14658.7177734 200.014648438 14660 196.848632812 14660 189.34375 c 2
 14660 -61.328125 l 2
 14660 -168.256835938 14761.4648438 -269.328125 14908 -269.328125 c 0
 14934.4921875 -269.328125 14956 -247.8203125 14956 -221.328125 c 0
 14956 -194.8359375 14934.4921875 -173.328125 14908 -173.328125 c 0
32568.7958984 1207.54199219 m 2
 32530.1699219 1180.90332031 32549.2792969 1120 32596 1120 c 0
 32606.0966797 1120 32615.4707031 1123.12402344 32623.2041016 1128.45800781 c 2
 32712.8867188 1190.30761719 l 1
 32810.0273438 1127.63574219 l 2
 32841.7675781 1107.15917969 32884 1130.078125 32884 1168 c 0
 32884 1184.92480469 32875.2207031 1199.81640625 32861.9726562 1208.36425781 c 2
 32737.9726562 1288.36425781 l 2
 32721.7744141 1298.81347656 32700.7597656 1298.55175781 32684.7958984 1287.54199219 c 2
 32568.7958984 1207.54199219 l 2
97.125 549.203125 m 2
 70.6328125 549.203125 49.125 527.6953125 49.125 501.203125 c 0
 49.125 474.7109375 70.6328125 453.203125 97.125 453.203125 c 2
 532.875 453.203125 l 2
 559.3671875 453.203125 580.875 474.7109375 580.875 501.203125 c 0
 580.875 527.6953125 559.3671875 549.203125 532.875 549.203125 c 2
 97.125 549.203125 l 2
1497.6875 673.3125 m 0
 1546.54882812 673.3125 1589.15527344 620.734375 1589.15527344 575.23046875 c 0
 1589.15527344 574.671875 1585.828125 547.500976562 1585.828125 547.21875 c 0
 1585.828125 520.7265625 1607.3359375 499.21875 1633.828125 499.21875 c 0
 1656.38183594 499.21875 1675.32421875 514.807617188 1680.45703125 535.790039062 c 0
 1707.70898438 647.192382812 1613.51269531 769.3125 1497.6875 769.3125 c 0
 1341.40527344 769.3125 1215.171875 550.4140625 1215.171875 327.125 c 0
 1215.171875 177.280273438 1294.04199219 82.046875 1392.90625 82.046875 c 0
 1429.90136719 82.046875 1566.58007812 88.0703125 1626.13085938 293.819335938 c 0
 1634.97558594 324.379882812 1612.00097656 355.171875 1580.015625 355.171875 c 0
 1558.15625 355.171875 1539.69042969 340.528320312 1533.90039062 320.524414062 c 0
 1521.28320312 276.930664062 1496.77050781 219.201171875 1451.75097656 193.060546875 c 0
 1435.51757812 183.634765625 1416.8203125 178.046875 1392.90625 178.046875 c 0
 1343.3359375 178.046875 1311.171875 246.508789062 1311.171875 327.125 c 0
 1311.171875 510.90234375 1412.14648438 673.3125 1497.6875 673.3125 c 0
37100.375 592.5625 m 2
 37100.375 701.41796875 37037.1435547 776 36942.359375 776 c 0
 36838.078125 776 36769.1787109 698.572265625 36704.1152344 601.62109375 c 0
 36682.8427734 569.923828125 36705.7011719 526.921875 36744 526.921875 c 0
 36760.6132812 526.921875 36775.2666016 535.380859375 36783.8847656 548.22265625 c 0
 36848.1337891 643.958984375 36893.234375 680 36942.359375 680 c 0
 36958.0625 680 36982.4189453 677.049804688 36996.1230469 641.688476562 c 0
 37001.3378906 628.232421875 37004.375 610.970703125 37004.375 592.5625 c 2
 37004.375 48 l 2
 37004.375 21.5078125 37025.8828125 0 37052.375 0 c 0
 37078.8671875 0 37100.375 21.5078125 37100.375 48 c 2
 37100.375 592.5625 l 2
36988.375 96 m 2
 36961.8828125 96 36940.375 74.4921875 36940.375 48 c 0
 36940.375 21.5078125 36961.8828125 0 36988.375 0 c 2
 37116.375 0 l 2
 37142.8671875 0 37164.375 21.5078125 37164.375 48 c 0
 37164.375 74.4921875 37142.8671875 96 37116.375 96 c 2
 36988.375 96 l 2
36371.609375 96 m 2
 36345.1171875 96 36323.609375 74.4921875 36323.609375 48 c 0
 36323.609375 21.5078125 36345.1171875 0 36371.609375 0 c 2
 36499.609375 0 l 2
 36526.1015625 0 36547.609375 21.5078125 36547.609375 48 c 0
 36547.609375 74.4921875 36526.1015625 96 36499.609375 96 c 2
 36371.609375 96 l 2
EndSplineSet
EndChar

StartChar: parenleft
Encoding: 40 40 1
Width: 1008
VWidth: 4000
Flags: HW
LayerCount: 2
Fore
SplineSet
636.431640625 1049.59082031 m 2
 653.233398438 1081.32617188 630.12890625 1120 593.98046875 1120 c 0
 575.580078125 1120 559.583984375 1109.62402344 551.529296875 1094.40917969 c 0
 548.129882812 1087.98828125 365.98046875 742.27734375 365.98046875 392 c 0
 365.98046875 233.330078125 402.896484375 77.951171875 443.391601562 -46.34765625 c 0
 494.013671875 -201.729492188 550.666015625 -308.778320312 551.529296875 -310.409179688 c 0
 559.583984375 -325.624023438 575.580078125 -336 593.98046875 -336 c 0
 630.12890625 -336 653.233398438 -297.326171875 636.431640625 -265.590820312 c 2
 636.431640625 -265.590820312 461.98046875 65.7880859375 461.98046875 392 c 0
 461.98046875 718.211914062 636.431640625 1049.59082031 636.431640625 1049.59082031 c 2
EndSplineSet
EndChar

StartChar: zero
Encoding: 48 48 2
Width: 1008
VWidth: 4000
Flags: HW
LayerCount: 2
Fore
SplineSet
504 76 m 4
 357.80859375 76 232 278.004882812 232 528 c 4
 232 777.991210938 357.806640625 980 504 980 c 4
 650.19140625 980 776 777.995117188 776 528 c 4
 776 278.008789062 650.193359375 76 504 76 c 4
504 1076 m 4
 298.434570312 1076 136 831.864257812 136 528 c 4
 136 224.15625 298.420898438 -20 504 -20 c 4
 709.565429688 -20 872 224.135742188 872 528 c 4
 872 831.84375 709.579101562 1076 504 1076 c 4
182.5078125 72.134765625 m 6
 163.970703125 40.35546875 187.006835938 0 224 0 c 4
 241.696289062 0 257.168945312 9.5966796875 265.4921875 23.865234375 c 6
 825.4921875 983.865234375 l 6
 844.029296875 1015.64453125 820.993164062 1056 784 1056 c 4
 766.303710938 1056 750.831054688 1046.40332031 742.5078125 1032.13476562 c 6
 182.5078125 72.134765625 l 6
EndSplineSet
EndChar

StartChar: eight
Encoding: 56 56 3
Width: 1008
VWidth: 4000
Flags: HW
LayerCount: 2
Fore
SplineSet
504 76 m 4
 335.203125 76 192 171.233398438 192 288 c 4
 192 404.754882812 335.185546875 500 504 500 c 4
 672.796875 500 816 404.766601562 816 288 c 4
 816 171.245117188 672.814453125 76 504 76 c 4
504 596 m 4
 274.146484375 596 96 456.850585938 96 288 c 4
 96 119.157226562 274.135742188 -20 504 -20 c 4
 733.853515625 -20 912 119.149414062 912 288 c 4
 912 456.842773438 733.864257812 596 504 596 c 4
504 596 m 4
 356.854492188 596 232 682.016601562 232 788 c 4
 232 893.98046875 356.850585938 980 504 980 c 4
 651.145507812 980 776 893.983398438 776 788 c 4
 776 682.01953125 651.149414062 596 504 596 c 4
504 1076 m 4
 296.928710938 1076 136 945.788085938 136 788 c 4
 136 630.21875 296.919921875 500 504 500 c 4
 711.071289062 500 872 630.211914062 872 788 c 4
 872 945.78125 711.080078125 1076 504 1076 c 4
EndSplineSet
EndChar

StartChar: at
Encoding: 64 64 4
Width: 1008
VWidth: 4000
Flags: HW
LayerCount: 2
Fore
SplineSet
634 -124 m 0
 626.899414062 -124 599.140625 -128.65234375 557.850585938 -128.65234375 c 0
 383.997070312 -128.65234375 302.114257812 -42.7412109375 257.864257812 35.890625 c 0
 208.583007812 123.461914062 182 249.125976562 182 408 c 0
 182 644.006835938 225.060546875 866.252929688 369.88671875 946.327148438 c 0
 409.345703125 968.143554688 456.58203125 980 514 980 c 0
 650.912109375 980 724.327148438 911.578125 766.8125 829.463867188 c 0
 806.538085938 752.682617188 826 647.885742188 826 530.015625 c 0
 826 413.069335938 816.2734375 337.153320312 802.596679688 293.0703125 c 0
 791.5 257.302734375 779.40625 245.844726562 773.248046875 242.076171875 c 0
 744.9375 224.751953125 702 267.4609375 702 303.828125 c 0
 702 330.3203125 680.4921875 351.828125 654 351.828125 c 0
 627.5078125 351.828125 606 330.3203125 606 303.828125 c 0
 606 254.021484375 630.290039062 211.33203125 661.739257812 182.4140625 c 0
 686.85546875 159.319335938 719.174804688 142.0625 756.25 142.0625 c 0
 809.477539062 142.0625 864.700195312 169.197265625 894.305664062 264.625 c 0
 912.88671875 324.516601562 922 407.998046875 922 530.015625 c 0
 922 608.708984375 918.82421875 915.208007812 700.90234375 1032.31054688 c 0
 647.662109375 1060.91992188 585.0390625 1076 514 1076 c 0
 390.53125 1076 248.536132812 1030.16601562 163.509765625 851.762695312 c 0
 109.647460938 738.748046875 86 589.911132812 86 408 c 0
 86 272.381835938 100.084960938 -60.6416015625 351.44140625 -181.419921875 c 0
 424.497070312 -216.522460938 518.631835938 -233.908203125 639.658203125 -219.668945312 c 0
 663.487304688 -216.866210938 682 -196.578125 682 -172 c 0
 682 -145.5078125 660.4921875 -124 634 -124 c 0
654 255.828125 m 0
 680.4921875 255.828125 702 277.3359375 702 303.828125 c 2
 701.3125 633.211914062 l 2
 701.256835938 659.65625 679.770507812 681.109375 653.3125 681.109375 c 0
 626.8203125 681.109375 605.3125 659.6015625 605.3125 633.109375 c 2
 606 303.725585938 l 2
 606 277.28125 627.541992188 255.828125 654 255.828125 c 0
514 816 m 0
 398.606445312 816 326 747.474609375 326 648 c 0
 326 621.5078125 347.5078125 600 374 600 c 0
 400.4921875 600 422 621.5078125 422 648 c 0
 422 683.603515625 438.916015625 697.547851562 448.935546875 704.10546875 c 0
 463.094726562 713.374023438 485.458984375 720 514 720 c 0
 547.91796875 720 605.3125 708.783203125 605.3125 632.859375 c 0
 605.3125 581.3515625 561.45703125 548.943359375 476.734375 523.536132812 c 0
 427.096679688 508.662109375 306 466.336914062 306 328 c 0
 306 212.216796875 373.633789062 128.3125 474 128.3125 c 0
 580.262695312 128.3125 702 220.95703125 702 348 c 0
 702 374.4921875 680.4921875 396 654 396 c 0
 627.5078125 396 606 374.4921875 606 348 c 0
 606 275.69140625 528.265625 224.3125 474 224.3125 c 0
 405.388671875 224.3125 402 310.895507812 402 328 c 0
 402 365.458007812 414.44140625 404.6328125 504.296875 431.557617188 c 0
 590.57421875 457.431640625 701.3125 509.3359375 701.3125 632.859375 c 0
 701.3125 739.986328125 627.387695312 816 514 816 c 0
EndSplineSet
EndChar

StartChar: H
Encoding: 72 72 5
Width: 1008
VWidth: 4000
Flags: HW
LayerCount: 2
Fore
SplineSet
132 1056 m 2
 105.5078125 1056 84 1034.4921875 84 1008 c 0
 84 981.5078125 105.5078125 960 132 960 c 2
 316 960 l 2
 342.4921875 960 364 981.5078125 364 1008 c 0
 364 1034.4921875 342.4921875 1056 316 1056 c 2
 132 1056 l 2
132 96 m 2
 105.5078125 96 84 74.4921875 84 48 c 0
 84 21.5078125 105.5078125 0 132 0 c 2
 316 0 l 2
 342.4921875 0 364 21.5078125 364 48 c 0
 364 74.4921875 342.4921875 96 316 96 c 2
 132 96 l 2
176 68 m 2
 176 41.5078125 197.5078125 20 224 20 c 0
 250.4921875 20 272 41.5078125 272 68 c 2
 272 1008 l 2
 272 1034.4921875 250.4921875 1056 224 1056 c 0
 197.5078125 1056 176 1034.4921875 176 1008 c 2
 176 68 l 2
692 1056 m 2
 665.5078125 1056 644 1034.4921875 644 1008 c 0
 644 981.5078125 665.5078125 960 692 960 c 2
 876 960 l 2
 902.4921875 960 924 981.5078125 924 1008 c 0
 924 1034.4921875 902.4921875 1056 876 1056 c 2
 692 1056 l 2
692 96 m 2
 665.5078125 96 644 74.4921875 644 48 c 0
 644 21.5078125 665.5078125 0 692 0 c 2
 876 0 l 2
 902.4921875 0 924 21.5078125 924 48 c 0
 924 74.4921875 902.4921875 96 876 96 c 2
 692 96 l 2
736 68 m 2
 736 41.5078125 757.5078125 20 784 20 c 0
 810.4921875 20 832 41.5078125 832 68 c 2
 832 1008 l 2
 832 1034.4921875 810.4921875 1056 784 1056 c 0
 757.5078125 1056 736 1034.4921875 736 1008 c 2
 736 68 l 2
244 596 m 2
 217.5078125 596 196 574.4921875 196 548 c 0
 196 521.5078125 217.5078125 500 244 500 c 2
 764 500 l 2
 790.4921875 500 812 521.5078125 812 548 c 0
 812 574.4921875 790.4921875 596 764 596 c 2
 244 596 l 2
EndSplineSet
EndChar

StartChar: O
Encoding: 79 79 6
Width: 1008
VWidth: 4000
Flags: HW
LayerCount: 2
Fore
SplineSet
504 76 m 0
 357.80859375 76 232 278.004882812 232 528 c 0
 232 777.991210938 357.806640625 980 504 980 c 0
 650.19140625 980 776 777.995117188 776 528 c 0
 776 278.008789062 650.193359375 76 504 76 c 0
504 1076 m 0
 298.434570312 1076 136 831.864257812 136 528 c 0
 136 224.15625 298.420898438 -20 504 -20 c 0
 709.565429688 -20 872 224.135742188 872 528 c 0
 872 831.84375 709.579101562 1076 504 1076 c 0
EndSplineSet
EndChar

StartChar: X
Encoding: 88 88 7
Width: 1008
VWidth: 4000
Flags: HW
LayerCount: 2
Fore
SplineSet
244 1056 m 4
 207.330078125 1056 184.262695312 1016.29003906 202.133789062 984.518554688 c 6
 742.133789062 24.5185546875 l 6
 750.362304688 9.890625 766.03515625 0 784 0 c 4
 820.669921875 0 843.737304688 39.7099609375 825.866210938 71.4814453125 c 6
 285.866210938 1031.48144531 l 6
 277.637695312 1046.109375 261.96484375 1056 244 1056 c 4
805.866210938 984.518554688 m 6
 823.737304688 1016.29003906 800.670898438 1056 764 1056 c 4
 746.03515625 1056 730.362304688 1046.109375 722.133789062 1031.48144531 c 6
 182.133789062 71.4814453125 l 6
 164.262695312 39.7099609375 187.329101562 0 224 0 c 4
 241.96484375 0 257.637695312 9.890625 265.866210938 24.5185546875 c 6
 805.866210938 984.518554688 l 6
644 96 m 6
 617.5078125 96 596 74.4921875 596 48 c 4
 596 21.5078125 617.5078125 0 644 0 c 6
 904 0 l 6
 930.4921875 0 952 21.5078125 952 48 c 4
 952 74.4921875 930.4921875 96 904 96 c 6
 644 96 l 6
104 96 m 6
 77.5078125 96 56 74.4921875 56 48 c 4
 56 21.5078125 77.5078125 0 104 0 c 6
 364 0 l 6
 390.4921875 0 412 21.5078125 412 48 c 4
 412 74.4921875 390.4921875 96 364 96 c 6
 104 96 l 6
624 1056 m 6
 597.5078125 1056 576 1034.4921875 576 1008 c 4
 576 981.5078125 597.5078125 960 624 960 c 6
 864 960 l 6
 890.4921875 960 912 981.5078125 912 1008 c 4
 912 1034.4921875 890.4921875 1056 864 1056 c 6
 624 1056 l 6
144 1056 m 6
 117.5078125 1056 96 1034.4921875 96 1008 c 4
 96 981.5078125 117.5078125 960 144 960 c 6
 384 960 l 6
 410.4921875 960 432 981.5078125 432 1008 c 4
 432 1034.4921875 410.4921875 1056 384 1056 c 6
 144 1056 l 6
EndSplineSet
EndChar

StartChar: x
Encoding: 120 120 8
Width: 1008
VWidth: 4000
Flags: HW
LayerCount: 2
Fore
SplineSet
132 96 m 2
 105.5078125 96 84 74.4921875 84 48 c 0
 84 21.5078125 105.5078125 0 132 0 c 2
 356 0 l 2
 382.4921875 0 404 21.5078125 404 48 c 0
 404 74.4921875 382.4921875 96 356 96 c 2
 132 96 l 2
652 96 m 2
 625.5078125 96 604 74.4921875 604 48 c 0
 604 21.5078125 625.5078125 0 652 0 c 2
 876 0 l 2
 902.4921875 0 924 21.5078125 924 48 c 0
 924 74.4921875 902.4921875 96 876 96 c 2
 652 96 l 2
172 756 m 2
 145.5078125 756 124 734.4921875 124 708 c 0
 124 681.5078125 145.5078125 660 172 660 c 2
 376 660 l 2
 402.4921875 660 424 681.5078125 424 708 c 0
 424 734.4921875 402.4921875 756 376 756 c 2
 172 756 l 2
632 756 m 2
 605.5078125 756 584 734.4921875 584 708 c 0
 584 681.5078125 605.5078125 660 632 660 c 2
 836 660 l 2
 862.4921875 660 884 681.5078125 884 708 c 0
 884 734.4921875 862.4921875 756 836 756 c 2
 632 756 l 2
280.61328125 739.02734375 m 2
 251.791992188 772.995117188 196 752.359375 196 708 c 0
 196 696.174804688 200.28515625 685.341796875 207.38671875 676.97265625 c 2
 767.38671875 16.97265625 l 2
 796.208007812 -16.9951171875 852 3.640625 852 48 c 0
 852 59.8251953125 847.71484375 70.658203125 840.61328125 79.02734375 c 2
 280.61328125 739.02734375 l 2
800.61328125 676.97265625 m 2
 826.959960938 708.024414062 804.693359375 756 764 756 c 0
 749.333984375 756 736.194335938 749.408203125 727.38671875 739.02734375 c 2
 167.38671875 79.02734375 l 2
 141.040039062 47.9755859375 163.306640625 0 204 0 c 0
 218.666015625 0 231.805664062 6.591796875 240.61328125 16.97265625 c 2
 800.61328125 676.97265625 l 2
EndSplineSet
EndChar

StartChar: one
Encoding: 49 49 9
Width: 1008
VWidth: 4000
Flags: HW
LayerCount: 2
Fore
SplineSet
224 96 m 6
 197.5078125 96 176 74.4921875 176 48 c 4
 176 21.5078125 197.5078125 0 224 0 c 6
 784 0 l 6
 810.4921875 0 832 21.5078125 832 48 c 4
 832 74.4921875 810.4921875 96 784 96 c 6
 224 96 l 6
456 48 m 6
 456 21.5078125 477.5078125 0 504 0 c 4
 530.4921875 0 552 21.5078125 552 48 c 6
 552 1008 l 6
 552 1034.4921875 530.4921875 1056 504 1056 c 6
 268 1056 l 6
 241.5078125 1056 220 1034.4921875 220 1008 c 4
 220 981.5078125 241.5078125 960 268 960 c 6
 456 960 l 5
 456 48 l 6
EndSplineSet
EndChar

StartChar: l
Encoding: 108 108 10
Width: 1008
VWidth: 4000
Flags: HW
LayerCount: 2
Fore
SplineSet
224 96 m 6
 197.5078125 96 176 74.4921875 176 48 c 4
 176 21.5078125 197.5078125 0 224 0 c 6
 784 0 l 6
 810.4921875 0 832 21.5078125 832 48 c 4
 832 74.4921875 810.4921875 96 784 96 c 6
 224 96 l 6
456 48 m 6
 456 21.5078125 477.5078125 0 504 0 c 4
 530.4921875 0 552 21.5078125 552 48 c 6
 552 1008 l 6
 552 1034.4921875 530.4921875 1056 504 1056 c 6
 268 1056 l 6
 241.5078125 1056 220 1034.4921875 220 1008 c 4
 220 981.5078125 241.5078125 960 268 960 c 6
 456 960 l 5
 456 48 l 6
EndSplineSet
EndChar

StartChar: I
Encoding: 73 73 11
Width: 1008
VWidth: 4000
Flags: HW
LayerCount: 2
Fore
SplineSet
224 96 m 2
 197.5078125 96 176 74.4921875 176 48 c 0
 176 21.5078125 197.5078125 0 224 0 c 2
 784 0 l 2
 810.4921875 0 832 21.5078125 832 48 c 0
 832 74.4921875 810.4921875 96 784 96 c 2
 224 96 l 2
224 1056 m 2
 197.5078125 1056 176 1034.4921875 176 1008 c 0
 176 981.5078125 197.5078125 960 224 960 c 2
 784 960 l 2
 810.4921875 960 832 981.5078125 832 1008 c 0
 832 1034.4921875 810.4921875 1056 784 1056 c 2
 224 1056 l 2
552 1008 m 2
 552 1034.4921875 530.4921875 1056 504 1056 c 0
 477.5078125 1056 456 1034.4921875 456 1008 c 2
 456 48 l 2
 456 21.5078125 477.5078125 0 504 0 c 0
 530.4921875 0 552 21.5078125 552 48 c 2
 552 1008 l 2
EndSplineSet
EndChar

StartChar: Y
Encoding: 89 89 12
Width: 1008
VWidth: 4000
Flags: HW
LayerCount: 2
Fore
SplineSet
344 96 m 2
 317.5078125 96 296 74.4921875 296 48 c 0
 296 21.5078125 317.5078125 0 344 0 c 2
 664 0 l 2
 690.4921875 0 712 21.5078125 712 48 c 0
 712 74.4921875 690.4921875 96 664 96 c 2
 344 96 l 2
456 48 m 2
 456 21.5078125 477.5078125 0 504 0 c 0
 530.4921875 0 552 21.5078125 552 48 c 2
 552 448 l 2
 552 474.4921875 530.4921875 496 504 496 c 0
 477.5078125 496 456 474.4921875 456 448 c 2
 456 48 l 2
204 1056 m 0
 167.750976562 1056 144.653320312 1017.12792969 161.659179688 985.3828125 c 2
 461.659179688 425.3828125 l 2
 479.731445312 391.647460938 528.267578125 391.647460938 546.340820312 425.3828125 c 2
 846.340820312 985.3828125 l 2
 863.346679688 1017.12792969 840.249023438 1056 804 1056 c 0
 785.68359375 1056 769.749023438 1045.71875 761.659179688 1030.6171875 c 2
 504 549.65234375 l 1
 246.340820312 1030.6171875 l 2
 238.250976562 1045.71875 222.31640625 1056 204 1056 c 0
104 1056 m 2
 77.5078125 1056 56 1034.4921875 56 1008 c 0
 56 981.5078125 77.5078125 960 104 960 c 2
 344 960 l 2
 370.4921875 960 392 981.5078125 392 1008 c 0
 392 1034.4921875 370.4921875 1056 344 1056 c 2
 104 1056 l 2
664 1056 m 2
 637.5078125 1056 616 1034.4921875 616 1008 c 0
 616 981.5078125 637.5078125 960 664 960 c 2
 904 960 l 2
 930.4921875 960 952 981.5078125 952 1008 c 0
 952 1034.4921875 930.4921875 1056 904 1056 c 2
 664 1056 l 2
EndSplineSet
EndChar

StartChar: quotedbl
Encoding: 34 34 13
Width: 1008
VWidth: 4000
Flags: HW
LayerCount: 2
Fore
SplineSet
704 560 m 0
 728.86328125 560 749.336914062 578.9453125 751.759765625 603.174804688 c 0
 792 1005.57421875 792 1005.57421875 792 1008 c 0
 792 1034.4921875 770.4921875 1056 744 1056 c 0
 664 1056 664 1056 664 1056 c 2
 637.5078125 1056 616 1034.4921875 616 1008 c 0
 616 1005.57421875 616 1005.57421875 656.240234375 603.174804688 c 0
 658.663085938 578.9453125 679.13671875 560 704 560 c 0
664 1007.99902344 m 1
 744 1007.99902344 l 1
 704 607.999023438 l 1
 664 1007.99902344 l 1
304 560 m 0
 328.86328125 560 349.336914062 578.9453125 351.759765625 603.174804688 c 0
 392 1005.57421875 392 1005.57421875 392 1008 c 0
 392 1034.4921875 370.4921875 1056 344 1056 c 0
 264 1056 264 1056 264 1056 c 2
 237.5078125 1056 216 1034.4921875 216 1008 c 0
 216 1005.57421875 216 1005.57421875 256.240234375 603.174804688 c 0
 258.663085938 578.9453125 279.13671875 560 304 560 c 0
264 1007.99902344 m 1
 344 1007.99902344 l 1
 304 607.999023438 l 1
 264 1007.99902344 l 1
EndSplineSet
EndChar

StartChar: asterisk
Encoding: 42 42 14
Width: 1008
VWidth: 4000
Flags: HW
LayerCount: 2
Fore
SplineSet
204 776 m 2
 177.5078125 776 156 754.4921875 156 728 c 0
 156 701.5078125 177.5078125 680 204 680 c 2
 804 680 l 2
 830.4921875 680 852 701.5078125 852 728 c 0
 852 754.4921875 830.4921875 776 804 776 c 2
 204 776 l 2
354 1035.8125 m 0
 317.099609375 1035.8125 294.053710938 995.641601562 312.400390625 963.864257812 c 2
 612.400390625 444.239257812 l 2
 620.697265625 429.868164062 636.2265625 420.1875 654 420.1875 c 0
 690.900390625 420.1875 713.946289062 460.358398438 695.599609375 492.135742188 c 2
 395.599609375 1011.76074219 l 2
 387.302734375 1026.13183594 371.7734375 1035.8125 354 1035.8125 c 0
695.599609375 963.864257812 m 2
 713.946289062 995.642578125 690.900390625 1035.8125 654 1035.8125 c 0
 636.2265625 1035.8125 620.697265625 1026.13183594 612.400390625 1011.76074219 c 2
 312.400390625 492.135742188 l 2
 294.053710938 460.357421875 317.099609375 420.1875 354 420.1875 c 0
 371.7734375 420.1875 387.302734375 429.868164062 395.599609375 444.239257812 c 2
 695.599609375 963.864257812 l 2
EndSplineSet
EndChar

StartChar: colon
Encoding: 58 58 15
Width: 1008
VWidth: 4000
Flags: HW
LayerCount: 2
Fore
SplineSet
504 676 m 0
 501.34375 676 501.377929688 680 504 680 c 0
 506.622070312 680 506.65625 676 504 676 c 0
406 678 m 0
 406 623.889648438 449.920898438 580 504 580 c 0
 558.079101562 580 602 623.889648438 602 678 c 0
 602 732.091796875 558.091796875 776 504 776 c 0
 449.908203125 776 406 732.091796875 406 678 c 0
454 677.997070312 m 0
 454 705.611328125 476.385742188 727.997070312 504 727.997070312 c 0
 531.614257812 727.997070312 554 705.611328125 554 677.997070312 c 0
 554 650.3828125 531.614257812 627.997070312 504 627.997070312 c 0
 476.385742188 627.997070312 454 650.3828125 454 677.997070312 c 0
504 76 m 0
 501.34375 76 501.377929688 80 504 80 c 0
 506.622070312 80 506.65625 76 504 76 c 0
406 78 m 0
 406 23.8896484375 449.920898438 -20 504 -20 c 0
 558.079101562 -20 602 23.8896484375 602 78 c 0
 602 132.091796875 558.091796875 176 504 176 c 0
 449.908203125 176 406 132.091796875 406 78 c 0
454 77.9970703125 m 0
 454 105.611328125 476.385742188 127.997070312 504 127.997070312 c 0
 531.614257812 127.997070312 554 105.611328125 554 77.9970703125 c 0
 554 50.3828125 531.614257812 27.9970703125 504 27.9970703125 c 0
 476.385742188 27.9970703125 454 50.3828125 454 77.9970703125 c 0
EndSplineSet
EndChar

StartChar: i
Encoding: 105 105 16
Width: 1008
VWidth: 4000
Flags: HW
LayerCount: 2
Fore
SplineSet
244 96 m 2
 217.5078125 96 196 74.4921875 196 48 c 0
 196 21.5078125 217.5078125 0 244 0 c 2
 764 0 l 2
 790.4921875 0 812 21.5078125 812 48 c 0
 812 74.4921875 790.4921875 96 764 96 c 2
 244 96 l 2
456 68 m 2
 456 41.5078125 477.5078125 20 504 20 c 0
 530.4921875 20 552 41.5078125 552 68 c 2
 552 708 l 2
 552 734.4921875 530.4921875 756 504 756 c 2
 284 756 l 2
 257.5078125 756 236 734.4921875 236 708 c 0
 236 681.5078125 257.5078125 660 284 660 c 2
 456 660 l 1
 456 68 l 2
491.984375 988 m 1
 473.984375 970 l 1
 455.984375 988 l 1
 473.984375 1006 l 1
 491.984375 988 l 1
395.984375 988 m 0
 395.984375 944.951171875 430.935546875 910 473.984375 910 c 0
 517.052734375 910 551.984375 944.973632812 551.984375 988 c 0
 551.984375 1031.02636719 517.052734375 1066 473.984375 1066 c 0
 430.935546875 1066 395.984375 1031.04882812 395.984375 988 c 0
443.990234375 988 m 0
 443.990234375 1004.56835938 457.421875 1018 473.990234375 1018 c 0
 490.55859375 1018 503.990234375 1004.56835938 503.990234375 988 c 0
 503.990234375 971.430664062 490.55859375 958 473.990234375 958 c 0
 457.421875 958 443.990234375 971.430664062 443.990234375 988 c 0
EndSplineSet
EndChar

StartChar: A
Encoding: 65 65 17
Width: 1008
VWidth: 4000
Flags: HW
LayerCount: 2
Fore
SplineSet
296 48 m 0
 296 21.5078125 317.5078125 0 344 0 c 0
 370.4921875 0 392 21.5078125 392 48 c 0
 392 74.4921875 370.4921875 96 344 96 c 0
 317.5078125 96 296 74.4921875 296 48 c 0
324 0 m 2
 350.4921875 0 372 21.5078125 372 48 c 0
 372 74.4921875 350.4921875 96 324 96 c 2
 124 96 l 2
 97.5078125 96 76 74.4921875 76 48 c 0
 76 21.5078125 97.5078125 0 124 0 c 2
 324 0 l 2
884 0 m 2
 910.4921875 0 932 21.5078125 932 48 c 0
 932 74.4921875 910.4921875 96 884 96 c 2
 684 96 l 2
 657.5078125 96 636 74.4921875 636 48 c 0
 636 21.5078125 657.5078125 0 684 0 c 2
 884 0 l 2
157.663085938 60.5615234375 m 2
 149.430664062 30.1640625 172.366210938 0 204 0 c 0
 226.146484375 0 244.809570312 15.0302734375 250.336914062 35.4384765625 c 2
 500.739257812 960 l 1
 507.260742188 960 l 1
 757.663085938 35.4384765625 l 2
 763.190429688 15.0302734375 781.853515625 0 804 0 c 0
 835.634765625 0 858.569335938 30.1650390625 850.336914062 60.5615234375 c 2
 590.336914062 1020.56152344 l 2
 584.809570312 1040.96972656 566.146484375 1056 544 1056 c 2
 464 1056 l 2
 441.853515625 1056 423.190429688 1040.96972656 417.663085938 1020.56152344 c 2
 157.663085938 60.5615234375 l 2
304 408 m 2
 277.5078125 408 256 386.4921875 256 360 c 0
 256 333.5078125 277.5078125 312 304 312 c 2
 704 312 l 2
 730.4921875 312 752 333.5078125 752 360 c 0
 752 386.4921875 730.4921875 408 704 408 c 2
 304 408 l 2
EndSplineSet
EndChar

StartChar: parenright
Encoding: 41 41 18
Width: 1008
VWidth: 4000
Flags: HW
LayerCount: 2
Fore
SplineSet
371.568359375 -265.590820312 m 2
 354.766601562 -297.326171875 377.87109375 -336 414.01953125 -336 c 0
 432.419921875 -336 448.416015625 -325.624023438 456.470703125 -310.409179688 c 0
 459.870117188 -303.98828125 642.01953125 41.72265625 642.01953125 392 c 0
 642.01953125 550.669921875 605.103515625 706.048828125 564.608398438 830.34765625 c 0
 513.986328125 985.729492188 457.333984375 1092.77832031 456.470703125 1094.40917969 c 0
 448.416015625 1109.62402344 432.419921875 1120 414.01953125 1120 c 0
 377.87109375 1120 354.766601562 1081.32617188 371.568359375 1049.59082031 c 2
 371.568359375 1049.59082031 546.01953125 718.211914062 546.01953125 392 c 0
 546.01953125 65.7880859375 371.568359375 -265.590820312 371.568359375 -265.590820312 c 2
EndSplineSet
EndChar

StartChar: exclam
Encoding: 33 33 19
Width: 1008
VWidth: 4000
Flags: HW
LayerCount: 2
Fore
SplineSet
504 76 m 0
 501.365234375 76 501.365234375 80 504 80 c 0
 506.634765625 80 506.634765625 76 504 76 c 0
406 78 m 0
 406 23.908203125 449.908203125 -20 504 -20 c 0
 558.091796875 -20 602 23.908203125 602 78 c 0
 602 132.091796875 558.091796875 176 504 176 c 0
 449.908203125 176 406 132.091796875 406 78 c 0
453.999023438 78 m 0
 453.999023438 105.614257812 476.384765625 128 503.999023438 128 c 0
 531.61328125 128 553.999023438 105.614257812 553.999023438 78 c 0
 553.999023438 50.3857421875 531.61328125 28 503.999023438 28 c 0
 476.384765625 28 453.999023438 50.3857421875 453.999023438 78 c 0
504 280 m 0
 529.532226562 280 550.435546875 299.978515625 551.916015625 325.142578125 c 0
 592 1006.56738281 592 1006.56738281 592 1008 c 0
 592 1034.4921875 570.4921875 1056 544 1056 c 2
 464 1056 l 2
 437.5078125 1056 416 1034.4921875 416 1008 c 0
 416 1006.56738281 416 1006.56738281 456.083984375 325.142578125 c 0
 457.564453125 299.978515625 478.467773438 280 504 280 c 0
463.999023438 1008 m 1
 543.999023438 1008 l 1
 503.999023438 328 l 1
 463.999023438 1008 l 1
EndSplineSet
EndChar

StartChar: P
Encoding: 80 80 20
Width: 1008
VWidth: 4000
Flags: HW
LayerCount: 2
Fore
SplineSet
610 1056 m 0
 583.5078125 1056 562 1034.4921875 562 1008 c 0
 562 981.5078125 583.5078125 960 610 960 c 0
 710.4453125 960 792 878.4453125 792 778 c 0
 792 677.5546875 710.4453125 596 610 596 c 0
 583.5078125 596 562 574.4921875 562 548 c 0
 562 521.5078125 583.5078125 500 610 500 c 0
 763.4296875 500 888 624.5703125 888 778 c 0
 888 931.4296875 763.4296875 1056 610 1056 c 0
610 960 m 2
 636.4921875 960 658 981.5078125 658 1008 c 0
 658 1034.4921875 636.4921875 1056 610 1056 c 2
 168 1056 l 2
 141.5078125 1056 120 1034.4921875 120 1008 c 0
 120 981.5078125 141.5078125 960 168 960 c 2
 610 960 l 2
610 500 m 2
 636.4921875 500 658 521.5078125 658 548 c 0
 658 574.4921875 636.4921875 596 610 596 c 2
 300 596 l 2
 273.5078125 596 252 574.4921875 252 548 c 0
 252 521.5078125 273.5078125 500 300 500 c 2
 610 500 l 2
328 988 m 2
 328 1014.4921875 306.4921875 1036 280 1036 c 0
 253.5078125 1036 232 1014.4921875 232 988 c 2
 232 68 l 2
 232 41.5078125 253.5078125 20 280 20 c 0
 306.4921875 20 328 41.5078125 328 68 c 2
 328 988 l 2
168 96 m 2
 141.5078125 96 120 74.4921875 120 48 c 0
 120 21.5078125 141.5078125 0 168 0 c 2
 392 0 l 2
 418.4921875 0 440 21.5078125 440 48 c 0
 440 74.4921875 418.4921875 96 392 96 c 2
 168 96 l 2
EndSplineSet
EndChar

StartChar: grave
Encoding: 96 96 21
Width: 1008
VWidth: 4000
Flags: HW
LayerCount: 2
Fore
SplineSet
648.319335938 575.91015625 m 2
 677.659179688 543.310546875 732.00390625 564.313476562 732.00390625 608 c 0
 732.00390625 617.0078125 729.517578125 625.438476562 725.194335938 632.64453125 c 2
 485.194335938 1032.64453125 l 2
 476.801757812 1046.63085938 461.48828125 1056 444.00390625 1056 c 2
 324.00390625 1056 l 2
 282.672851562 1056 260.625976562 1006.68066406 288.319335938 975.91015625 c 2
 648.319335938 575.91015625 l 2
324.002929688 1008 m 1
 444.002929688 1008 l 1
 684.002929688 608 l 1
 324.002929688 1008 l 1
EndSplineSet
EndChar

StartChar: h
Encoding: 104 104 22
Width: 1008
VWidth: 4000
Flags: HW
LayerCount: 2
Fore
SplineSet
164 96 m 6
 137.5078125 96 116 74.4921875 116 48 c 4
 116 21.5078125 137.5078125 0 164 0 c 6
 364 0 l 6
 390.4921875 0 412 21.5078125 412 48 c 4
 412 74.4921875 390.4921875 96 364 96 c 6
 164 96 l 6
644 96 m 6
 617.5078125 96 596 74.4921875 596 48 c 4
 596 21.5078125 617.5078125 0 644 0 c 6
 844 0 l 6
 870.4921875 0 892 21.5078125 892 48 c 4
 892 74.4921875 870.4921875 96 844 96 c 6
 644 96 l 6
216 68 m 6
 216 41.5078125 237.5078125 20 264 20 c 4
 290.4921875 20 312 41.5078125 312 68 c 6
 312 1008 l 6
 312 1034.4921875 290.4921875 1056 264 1056 c 6
 164 1056 l 6
 137.5078125 1056 116 1034.4921875 116 1008 c 4
 116 981.5078125 137.5078125 960 164 960 c 6
 216 960 l 5
 216 68 l 6
792 522.046875 m 6
 792 672.053710938 709.213867188 780.859375 572.75 780.859375 c 4
 427.109375 780.859375 335.784179688 701.3671875 228.295898438 581.787109375 c 4
 200.629882812 551.008789062 222.682617188 501.71875 264 501.71875 c 4
 278.169921875 501.71875 290.915039062 507.872070312 299.704101562 517.650390625 c 4
 414.633789062 645.508789062 479.166992188 684.859375 572.75 684.859375 c 4
 597.896484375 684.859375 653.248046875 680.706054688 681.361328125 608.16015625 c 4
 690.903320312 583.537109375 696 553.540039062 696 522.046875 c 6
 696 48 l 6
 696 21.5078125 717.5078125 0 744 0 c 4
 770.4921875 0 792 21.5078125 792 48 c 6
 792 522.046875 l 6
EndSplineSet
EndChar

StartChar: p
Encoding: 112 112 23
Width: 1008
VWidth: 4000
Flags: HW
LayerCount: 2
Fore
SplineSet
291.9921875 378 m 4
 291.9921875 549.810546875 414.225585938 680 553.9921875 680 c 4
 693.774414062 680 815.9921875 549.8125 815.9921875 378 c 4
 815.9921875 206.1875 693.774414062 76 553.9921875 76 c 4
 414.225585938 76 291.9921875 206.189453125 291.9921875 378 c 4
195.9921875 378 m 4
 195.9921875 163.216796875 351.352539062 -20 553.9921875 -20 c 4
 756.647460938 -20 911.9921875 163.21875 911.9921875 378 c 4
 911.9921875 592.78125 756.647460938 776 553.9921875 776 c 4
 351.352539062 776 195.9921875 592.783203125 195.9921875 378 c 4
196.0078125 -252 m 6
 196.0078125 -278.4921875 217.515625 -300 244.0078125 -300 c 4
 270.5 -300 292.0078125 -278.4921875 292.0078125 -252 c 6
 292.0078125 708 l 6
 292.0078125 734.4921875 270.5 756 244.0078125 756 c 6
 144.0078125 756 l 6
 117.515625 756 96.0078125 734.4921875 96.0078125 708 c 4
 96.0078125 681.5078125 117.515625 660 144.0078125 660 c 6
 196.0078125 660 l 5
 196.0078125 -252 l 6
144.0078125 -204 m 6
 117.515625 -204 96.0078125 -225.5078125 96.0078125 -252 c 4
 96.0078125 -278.4921875 117.515625 -300 144.0078125 -300 c 6
 384.0078125 -300 l 6
 410.5 -300 432.0078125 -278.4921875 432.0078125 -252 c 4
 432.0078125 -225.5078125 410.5 -204 384.0078125 -204 c 6
 144.0078125 -204 l 6
EndSplineSet
EndChar

StartChar: Q
Encoding: 81 81 24
Width: 1008
VWidth: 4000
Flags: HW
LayerCount: 2
Fore
SplineSet
504 76 m 0
 357.80859375 76 232 278.004882812 232 528 c 0
 232 777.991210938 357.806640625 980 504 980 c 0
 650.19140625 980 776 777.995117188 776 528 c 0
 776 278.008789062 650.193359375 76 504 76 c 0
504 1076 m 0
 298.434570312 1076 136 831.864257812 136 528 c 0
 136 224.15625 298.420898438 -20 504 -20 c 0
 709.565429688 -20 872 224.135742188 872 528 c 0
 872 831.84375 709.579101562 1076 504 1076 c 0
795.03125 -209.234375 m 0
 905.977539062 -209.234375 952 -76.556640625 952 -52 c 0
 952 -25.5078125 930.4921875 -4 904 -4 c 0
 881.766601562 -4 863.04296875 -19.1494140625 857.598632812 -39.6796875 c 0
 857.357421875 -40.615234375 836.029296875 -113.234375 795.03125 -113.234375 c 0
 784.579101562 -113.234375 770.165039062 -113.234375 751.158203125 -77.82421875 c 0
 738.017578125 -53.341796875 725.040039062 -15.017578125 710.0078125 30.998046875 c 0
 680.090820312 122.578125 665.267578125 165.658203125 643.083984375 205.346679688 c 0
 619.01953125 248.400390625 574.43359375 305.875 484 305.875 c 0
 420.122070312 305.875 372.44921875 269.759765625 341.208007812 236.63671875 c 0
 301.470703125 194.5078125 281.556640625 150.592773438 280.400390625 148.08984375 c 0
 265.814453125 116.517578125 288.953125 80 324 80 c 0
 343.321289062 80 359.991210938 91.4404296875 367.599609375 107.91015625 c 0
 378.034179688 130.978515625 426.263671875 209.875 484 209.875 c 0
 547.540039062 209.875 567.384765625 158.375976562 618.73046875 1.19921875 c 0
 650.494140625 -96.0341796875 676.677734375 -176.185546875 749.85546875 -201.833984375 c 0
 764.10546875 -206.827148438 779.359375 -209.234375 795.03125 -209.234375 c 0
EndSplineSet
EndChar

StartChar: a
Encoding: 97 97 25
Width: 1008
VWidth: 4000
Flags: HW
LayerCount: 2
Fore
SplineSet
212 588 m 1
 194 570 l 1
 176 588 l 1
 194 606 l 1
 212 588 l 1
116 588 m 0
 116 544.951171875 150.951171875 510 194 510 c 0
 237.048828125 510 272 544.951171875 272 588 c 0
 272 631.048828125 237.048828125 666 194 666 c 0
 150.951171875 666 116 631.048828125 116 588 c 0
163.998046875 588 m 0
 163.998046875 604.568359375 177.4296875 618 193.998046875 618 c 0
 210.567382812 618 223.998046875 604.568359375 223.998046875 588 c 0
 223.998046875 571.431640625 210.567382812 558 193.998046875 558 c 0
 177.4296875 558 163.998046875 571.431640625 163.998046875 588 c 0
774.296875 -20 m 0
 848.852539062 -20 912 39.8798828125 912 128 c 0
 912 154.4921875 890.4921875 176 864 176 c 0
 837.5078125 176 816 154.4921875 816 128 c 0
 816 98.5107421875 800.612304688 76 774.296875 76 c 0
 757.471679688 76 712 82.0966796875 712 148 c 2
 712 508 l 2
 712 599.001953125 674.39453125 674.401367188 609.834960938 721.228515625 c 0
 558.799804688 758.24609375 494.313476562 776 424 776 c 0
 345.224609375 776 240.001953125 759.951171875 174.2578125 705.80859375 c 0
 140.772460938 678.232421875 116 637.622070312 116 588 c 0
 116 561.5078125 137.5078125 540 164 540 c 0
 190.4921875 540 212 561.5078125 212 588 c 0
 212 605.044921875 218.338867188 617.767578125 235.223632812 631.672851562 c 0
 250.423828125 644.190429688 274.579101562 655.9921875 303.807617188 664.375976562 c 0
 340.241210938 674.826171875 383.552734375 680 424 680 c 0
 478.130859375 680 522.287109375 666.1484375 553.555664062 643.46875 c 0
 591.876953125 615.672851562 616 572.553710938 616 508 c 2
 616 148 l 2
 616 36.7001953125 694.364257812 -20 774.296875 -20 c 0
96 188 m 0
 96 77.576171875 195.504882812 -20 344 -20 c 0
 515.783203125 -20 579.896484375 48.6982421875 654.504882812 128.642578125 c 0
 668.365234375 143.494140625 682.524414062 158.655273438 697.934570312 174.065429688 c 0
 728.073242188 204.205078125 706.49609375 256 664 256 c 0
 650.75390625 256 638.75390625 250.623046875 630.065429688 241.934570312 c 0
 613.182617188 225.051757812 598.176757812 208.961914062 584.317382812 194.111328125 c 0
 513.65625 118.396484375 472.829101562 76 344 76 c 0
 253.294921875 76 192 127.614257812 192 188 c 0
 192 242.536132812 211.155273438 287.272460938 249.645507812 321.241210938 c 0
 280.76953125 348.708984375 327.012695312 370.633789062 391.364257812 380.5625 c 0
 506.239257812 398.282226562 580.5625 401.717773438 620.842773438 401.717773438 c 0
 649 401.717773438 663.568359375 400 664 400 c 0
 690.4921875 400 712 421.5078125 712 448 c 0
 712 472.450195312 693.6796875 492.654296875 670.030273438 495.624023438 c 0
 667.112304688 495.990234375 580.053710938 506.814453125 376.635742188 475.4375 c 0
 298.403320312 463.366210938 233.990234375 435.439453125 186.16796875 393.236328125 c 0
 125.9765625 340.116210938 96 266.796875 96 188 c 0
EndSplineSet
EndChar

StartChar: q
Encoding: 113 113 26
Width: 1008
VWidth: 4000
Flags: HW
LayerCount: 2
Fore
SplineSet
171.9921875 378 m 0
 171.9921875 549.810546875 294.225585938 680 433.9921875 680 c 0
 573.774414062 680 695.9921875 549.8125 695.9921875 378 c 0
 695.9921875 206.1875 573.774414062 76 433.9921875 76 c 0
 294.225585938 76 171.9921875 206.189453125 171.9921875 378 c 0
75.9921875 378 m 0
 75.9921875 163.216796875 231.352539062 -20 433.9921875 -20 c 0
 636.647460938 -20 791.9921875 163.21875 791.9921875 378 c 0
 791.9921875 592.78125 636.647460938 776 433.9921875 776 c 0
 231.352539062 776 75.9921875 592.783203125 75.9921875 378 c 0
792.0078125 708 m 2
 792.0078125 734.4921875 770.5 756 744.0078125 756 c 0
 717.515625 756 696.0078125 734.4921875 696.0078125 708 c 2
 696.0078125 -252 l 2
 696.0078125 -278.4921875 717.515625 -300 744.0078125 -300 c 0
 770.5 -300 792.0078125 -278.4921875 792.0078125 -252 c 2
 792.0078125 708 l 2
604.0078125 -204 m 2
 577.515625 -204 556.0078125 -225.5078125 556.0078125 -252 c 0
 556.0078125 -278.4921875 577.515625 -300 604.0078125 -300 c 2
 884.0078125 -300 l 2
 910.5 -300 932.0078125 -278.4921875 932.0078125 -252 c 0
 932.0078125 -225.5078125 910.5 -204 884.0078125 -204 c 2
 604.0078125 -204 l 2
EndSplineSet
EndChar

StartChar: y
Encoding: 121 121 27
Width: 1008
VWidth: 4000
Flags: HW
LayerCount: 2
Fore
SplineSet
191.9921875 -132 m 1
 173.9921875 -150 l 1
 155.9921875 -132 l 1
 173.9921875 -114 l 1
 191.9921875 -132 l 1
95.9921875 -132 m 0
 95.9921875 -175.048828125 130.943359375 -210 173.9921875 -210 c 0
 217.060546875 -210 251.9921875 -175.026367188 251.9921875 -132 c 0
 251.9921875 -88.9736328125 217.060546875 -54 173.9921875 -54 c 0
 130.943359375 -54 95.9921875 -88.951171875 95.9921875 -132 c 0
143.997070312 -132 m 0
 143.997070312 -115.431640625 157.427734375 -102 173.997070312 -102 c 0
 190.565429688 -102 203.997070312 -115.431640625 203.997070312 -132 c 0
 203.997070312 -148.568359375 190.565429688 -162 173.997070312 -162 c 0
 157.427734375 -162 143.997070312 -148.568359375 143.997070312 -132 c 0
164.0078125 756 m 2
 137.515625 756 116.0078125 734.4921875 116.0078125 708 c 0
 116.0078125 681.5078125 137.515625 660 164.0078125 660 c 2
 364.0078125 660 l 2
 390.5 660 412.0078125 681.5078125 412.0078125 708 c 0
 412.0078125 734.4921875 390.5 756 364.0078125 756 c 2
 164.0078125 756 l 2
644.0078125 756 m 2
 617.515625 756 596.0078125 734.4921875 596.0078125 708 c 0
 596.0078125 681.5078125 617.515625 660 644.0078125 660 c 2
 844.0078125 660 l 2
 870.5 660 892.0078125 681.5078125 892.0078125 708 c 0
 892.0078125 734.4921875 870.5 756 844.0078125 756 c 2
 644.0078125 756 l 2
96.0078125 -132 m 0
 96.0078125 -249.987304688 181.029296875 -320 299.8828125 -320 c 0
 364.370117188 -320 483.678710938 -299.147460938 539.94140625 -155.372070312 c 2
 829.446289062 692.5 l 2
 840.016601562 723.458007812 816.952148438 756 784.0078125 756 c 0
 762.938476562 756 745.021484375 742.395507812 738.569335938 723.5 c 2
 450.094726562 -121.35546875 l 2
 414.6953125 -210.724609375 347.53125 -224 299.8828125 -224 c 0
 273.850585938 -224 219.948242188 -218.552734375 200.309570312 -175.514648438 c 0
 195.397460938 -164.75 192.0078125 -150.711914062 192.0078125 -132 c 0
 192.0078125 -105.5078125 170.5 -84 144.0078125 -84 c 0
 117.515625 -84 96.0078125 -105.5078125 96.0078125 -132 c 0
244.0078125 756 m 0
 209.900390625 756 186.772460938 721.28125 199.52734375 689.9375 c 2
 493.15234375 -31.625 l 2
 500.294921875 -49.17578125 517.528320312 -61.5625 537.6328125 -61.5625 c 0
 571.740234375 -61.5625 594.868164062 -26.84375 582.11328125 4.5 c 2
 288.48828125 726.0625 l 2
 281.345703125 743.61328125 264.112304688 756 244.0078125 756 c 0
EndSplineSet
EndChar

StartChar: two
Encoding: 50 50 28
Width: 1008
VWidth: 4000
Flags: HW
LayerCount: 2
Fore
SplineSet
501.595703125 980 m 0
 653.596679688 980 769.751953125 890.844726562 769.751953125 777.359375 c 0
 769.751953125 669.493164062 701.444335938 635.106445312 500.958984375 534.5078125 c 0
 316.641601562 442 155.634765625 306.138671875 114.240234375 55.8779296875 c 0
 114.240234375 53.314453125 113.595703125 50.6826171875 113.595703125 48 c 0
 113.595703125 21.5078125 135.103515625 0 161.595703125 0 c 0
 185.404296875 0 205.188476562 17.3720703125 208.951171875 40.1220703125 c 0
 238.549804688 219.065429688 338.286132812 345.44140625 543.919921875 448.6484375 c 0
 670.376953125 512.1015625 743.92578125 549.006835938 796.006835938 601.498046875 c 0
 849.861328125 655.778320312 865.751953125 715.8984375 865.751953125 777.359375 c 0
 865.751953125 944.038085938 709.713867188 1076 501.595703125 1076 c 0
 292.84375 1076 146.611328125 944.311523438 146.611328125 798.375 c 0
 146.611328125 771.8828125 168.119140625 750.375 194.611328125 750.375 c 0
 221.103515625 750.375 242.611328125 771.8828125 242.611328125 798.375 c 0
 242.611328125 891.553710938 349.913085938 980 501.595703125 980 c 0
661.548828125 77.71875 m 0
 570.185546875 77.71875 491.737304688 197.375 359.830078125 197.375 c 0
 295.764648438 197.375 242.40234375 172.75390625 203.486328125 147.30078125 c 0
 154.625976562 115.342773438 126.32421875 80.6796875 124.42578125 78.359375 c 0
 98.904296875 47.158203125 121.291015625 0 161.595703125 0 c 0
 176.57421875 0 189.959960938 6.8759765625 198.765625 17.640625 c 2
 198.765625 17.640625 217.95703125 42.060546875 255.935546875 66.9013671875 c 0
 285.0546875 85.9462890625 321.395507812 101.375 359.830078125 101.375 c 0
 455.295898438 101.375 532.504882812 -18.28125 661.548828125 -18.28125 c 0
 799.118164062 -18.28125 862.120117188 96.587890625 885.009765625 136.541992188 c 0
 890.435546875 146.013671875 894.423828125 152.974609375 894.423828125 165.734375 c 0
 894.423828125 192.2265625 872.916015625 213.734375 846.423828125 213.734375 c 0
 828.671875 213.734375 813.157226562 204.076171875 804.852539062 189.732421875 c 0
 777.778320312 142.96875 740.002929688 77.71875 661.548828125 77.71875 c 0
242.611328125 798.359375 m 1
 224.611328125 780.359375 l 1
 206.611328125 798.359375 l 1
 224.611328125 816.359375 l 1
 242.611328125 798.359375 l 1
146.611328125 798.359375 m 0
 146.611328125 755.310546875 181.5625 720.359375 224.611328125 720.359375 c 0
 267.6796875 720.359375 302.611328125 755.333007812 302.611328125 798.359375 c 0
 302.611328125 841.40625 267.658203125 876.359375 224.611328125 876.359375 c 0
 181.584960938 876.359375 146.611328125 841.427734375 146.611328125 798.359375 c 0
194.615234375 798.365234375 m 0
 194.615234375 814.93359375 208.045898438 828.365234375 224.615234375 828.365234375 c 0
 241.18359375 828.365234375 254.615234375 814.93359375 254.615234375 798.365234375 c 0
 254.615234375 781.796875 241.18359375 768.365234375 224.615234375 768.365234375 c 0
 208.045898438 768.365234375 194.615234375 781.796875 194.615234375 798.365234375 c 0
EndSplineSet
EndChar

StartChar: three
Encoding: 51 51 29
Width: 1008
VWidth: 4000
Flags: HW
LayerCount: 2
Fore
SplineSet
474 -20 m 4
 723.1796875 -20 882 143.87890625 882 328 c 4
 882 427.92578125 846.150390625 527.454101562 756.24609375 594.146484375 c 4
 705.85546875 631.52734375 641.14453125 657.013671875 561.0078125 668.706054688 c 5
 860.295898438 974.431640625 l 6
 889.939453125 1004.71191406 868.258789062 1056 826 1056 c 6
 254 1056 l 6
 233.794921875 1056 216.489257812 1043.48925781 209.413085938 1025.79882812 c 6
 169.413085938 925.798828125 l 6
 156.889648438 894.490234375 180.012695312 860 214 860 c 4
 234.205078125 860 251.510742188 872.510742188 258.586914062 890.201171875 c 6
 286.505859375 960 l 5
 711.852539062 960 l 5
 419.704101562 661.568359375 l 6
 390.060546875 631.288085938 411.741210938 580 454 580 c 4
 547.756835938 580 786 565.04296875 786 328 c 4
 786 191.849609375 664.223632812 76 474 76 c 4
 326.334960938 76 222 151.520507812 222 258 c 4
 222 284.4921875 200.4921875 306 174 306 c 4
 147.5078125 306 126 284.4921875 126 258 c 4
 126 104.23046875 263.071289062 -20 474 -20 c 4
222 258 m 5
 204 240 l 5
 186 258 l 5
 204 276 l 5
 222 258 l 5
126 258 m 4
 126 214.931640625 160.973632812 180 204 180 c 4
 247.026367188 180 282 214.931640625 282 258 c 4
 282 301.048828125 247.048828125 336 204 336 c 4
 160.951171875 336 126 301.048828125 126 258 c 4
174 257.997070312 m 4
 174 274.565429688 187.431640625 287.997070312 204 287.997070312 c 4
 220.568359375 287.997070312 234 274.565429688 234 257.997070312 c 4
 234 241.428710938 220.568359375 227.997070312 204 227.997070312 c 4
 187.431640625 227.997070312 174 241.428710938 174 257.997070312 c 4
EndSplineSet
EndChar

StartChar: B
Encoding: 66 66 30
Width: 1008
VWidth: 4000
Flags: HW
LayerCount: 2
Fore
SplineSet
274 616 m 2
 247.5078125 616 226 594.4921875 226 568 c 0
 226 541.5078125 247.5078125 520 274 520 c 2
 594.28125 520 l 2
 620.7734375 520 642.28125 541.5078125 642.28125 568 c 0
 642.28125 594.4921875 620.7734375 616 594.28125 616 c 2
 274 616 l 2
154 96 m 2
 127.5078125 96 106 74.4921875 106 48 c 0
 106 21.5078125 127.5078125 0 154 0 c 2
 594 0 l 2
 620.4921875 0 642 21.5078125 642 48 c 0
 642 74.4921875 620.4921875 96 594 96 c 2
 154 96 l 2
466 1008 m 0
 466 981.5078125 487.5078125 960 514 960 c 0
 540.4921875 960 562 981.5078125 562 1008 c 0
 562 1034.4921875 540.4921875 1056 514 1056 c 0
 487.5078125 1056 466 1034.4921875 466 1008 c 0
574 960 m 2
 600.4921875 960 622 981.5078125 622 1008 c 0
 622 1034.4921875 600.4921875 1056 574 1056 c 2
 154 1056 l 2
 127.5078125 1056 106 1034.4921875 106 1008 c 0
 106 981.5078125 127.5078125 960 154 960 c 2
 574 960 l 2
574 1056 m 0
 547.5078125 1056 526 1034.4921875 526 1008 c 0
 526 981.5078125 547.5078125 960 574 960 c 0
 668.9296875 960 746 882.9296875 746 788 c 0
 746 693.0703125 668.9296875 616 574 616 c 0
 547.5078125 616 526 594.4921875 526 568 c 0
 526 541.5078125 547.5078125 520 574 520 c 0
 721.9140625 520 842 640.0859375 842 788 c 0
 842 935.9140625 721.9140625 1056 574 1056 c 0
594 616 m 0
 567.5078125 616 546 594.4921875 546 568 c 0
 546 541.5078125 567.5078125 520 594 520 c 0
 711.008789062 520 806 425.008789062 806 308 c 0
 806 190.991210938 711.008789062 96 594 96 c 0
 567.5078125 96 546 74.4921875 546 48 c 0
 546 21.5078125 567.5078125 0 594 0 c 0
 763.991210938 0 902 138.008789062 902 308 c 0
 902 477.991210938 763.991210938 616 594 616 c 0
206 68 m 2
 206 41.5078125 227.5078125 20 254 20 c 0
 280.4921875 20 302 41.5078125 302 68 c 2
 302 988 l 2
 302 1014.4921875 280.4921875 1036 254 1036 c 0
 227.5078125 1036 206 1014.4921875 206 988 c 2
 206 68 l 2
EndSplineSet
EndChar

StartChar: J
Encoding: 74 74 31
Width: 1008
VWidth: 4000
Flags: HW
LayerCount: 2
Fore
SplineSet
554 1056 m 6
 527.5078125 1056 506 1034.4921875 506 1008 c 4
 506 981.5078125 527.5078125 960 554 960 c 6
 854 960 l 6
 880.4921875 960 902 981.5078125 902 1008 c 4
 902 1034.4921875 880.4921875 1056 854 1056 c 6
 554 1056 l 6
106 288 m 6
 106 86.48828125 260.7265625 -20 434 -20 c 4
 602.265625 -20 762 124.140625 762 348 c 6
 762 988 l 6
 762 1014.4921875 740.4921875 1036 714 1036 c 4
 687.5078125 1036 666 1014.4921875 666 988 c 6
 666 348 l 6
 666 171.859375 545.734375 76 434 76 c 4
 340.7421875 76 202 120.715820312 202 288 c 6
 202 328 l 6
 202 354.4921875 180.4921875 376 154 376 c 4
 127.5078125 376 106 354.4921875 106 328 c 6
 106 288 l 6
202 328 m 5
 184 310 l 5
 166 328 l 5
 184 346 l 5
 202 328 l 5
106 328 m 4
 106 284.931640625 140.973632812 250 184 250 c 4
 227.026367188 250 262 284.931640625 262 328 c 4
 262 371.048828125 227.048828125 406 184 406 c 4
 140.951171875 406 106 371.048828125 106 328 c 4
154 327.99609375 m 4
 154 344.564453125 167.431640625 357.99609375 184 357.99609375 c 4
 200.568359375 357.99609375 214 344.564453125 214 327.99609375 c 4
 214 311.427734375 200.568359375 297.99609375 184 297.99609375 c 4
 167.431640625 297.99609375 154 311.427734375 154 327.99609375 c 4
EndSplineSet
EndChar

StartChar: R
Encoding: 82 82 32
Width: 1008
VWidth: 4000
Flags: HW
LayerCount: 2
Fore
SplineSet
105.1484375 96 m 6
 78.65625 96 57.1484375 74.4921875 57.1484375 48 c 4
 57.1484375 21.5078125 78.65625 0 105.1484375 0 c 6
 345.1484375 0 l 6
 371.640625 0 393.1484375 21.5078125 393.1484375 48 c 4
 393.1484375 74.4921875 371.640625 96 345.1484375 96 c 6
 105.1484375 96 l 6
177.1484375 48 m 6
 177.1484375 21.5078125 198.65625 0 225.1484375 0 c 4
 251.640625 0 273.1484375 21.5078125 273.1484375 48 c 6
 273.1484375 1008 l 6
 273.1484375 1034.4921875 251.640625 1056 225.1484375 1056 c 4
 198.65625 1056 177.1484375 1034.4921875 177.1484375 1008 c 6
 177.1484375 48 l 6
105.1484375 1056 m 6
 78.65625 1056 57.1484375 1034.4921875 57.1484375 1008 c 4
 57.1484375 981.5078125 78.65625 960 105.1484375 960 c 6
 585.1484375 960 l 6
 611.640625 960 633.1484375 981.5078125 633.1484375 1008 c 4
 633.1484375 1034.4921875 611.640625 1056 585.1484375 1056 c 6
 105.1484375 1056 l 6
233.7109375 644.5625 m 6
 207.21875 644.5625 185.7109375 623.0546875 185.7109375 596.5625 c 4
 185.7109375 570.0703125 207.21875 548.5625 233.7109375 548.5625 c 6
 585.1484375 548.5625 l 6
 611.640625 548.5625 633.1484375 570.0703125 633.1484375 596.5625 c 4
 633.1484375 623.0546875 611.640625 644.5625 585.1484375 644.5625 c 6
 233.7109375 644.5625 l 6
585.1484375 1056 m 4
 558.65625 1056 537.1484375 1034.4921875 537.1484375 1008 c 4
 537.1484375 981.5078125 558.65625 960 585.1484375 960 c 4
 684.948242188 960 760.0078125 886.043945312 760.0078125 802.28125 c 4
 760.0078125 718.518554688 684.948242188 644.5625 585.1484375 644.5625 c 4
 558.65625 644.5625 537.1484375 623.0546875 537.1484375 596.5625 c 4
 537.1484375 570.0703125 558.65625 548.5625 585.1484375 548.5625 c 4
 731.348632812 548.5625 856.0078125 658.981445312 856.0078125 802.28125 c 4
 856.0078125 945.581054688 731.348632812 1056 585.1484375 1056 c 4
829.751953125 96 m 5
 786.358398438 289.341796875 671.241210938 644.5625 259.4296875 644.5625 c 4
 232.9375 644.5625 211.4296875 623.0546875 211.4296875 596.5625 c 4
 211.4296875 570.0703125 232.9375 548.5625 259.4296875 548.5625 c 4
 533.388671875 548.5625 677.916992188 367.923828125 743.783203125 38.55078125 c 4
 748.177734375 16.5771484375 767.59375 0 790.8515625 0 c 6
 902.8515625 0 l 6
 929.34375 0 950.8515625 21.5078125 950.8515625 48 c 4
 950.8515625 74.4921875 929.34375 96 902.8515625 96 c 6
 829.751953125 96 l 5
EndSplineSet
EndChar

StartChar: Z
Encoding: 90 90 33
Width: 1008
VWidth: 4000
Flags: HW
LayerCount: 2
Fore
SplineSet
912.015625 288 m 6
 912.015625 314.4921875 890.5078125 336 864.015625 336 c 4
 837.5234375 336 816.015625 314.4921875 816.015625 288 c 6
 816.015625 96 l 5
 236.83203125 96 l 5
 863.2109375 980.299804688 l 6
 885.6015625 1011.91015625 862.84375 1056 824.015625 1056 c 6
 164.015625 1056 l 6
 137.5234375 1056 116.015625 1034.4921875 116.015625 1008 c 6
 116.015625 828 l 6
 116.015625 801.5078125 137.5234375 780 164.015625 780 c 4
 190.5078125 780 212.015625 801.5078125 212.015625 828 c 6
 212.015625 960 l 5
 731.19921875 960 l 5
 104.8203125 75.7001953125 l 6
 82.4296875 44.08984375 105.1875 0 144.015625 0 c 6
 864.015625 0 l 6
 890.5078125 0 912.015625 21.5078125 912.015625 48 c 6
 912.015625 288 l 6
EndSplineSet
EndChar

StartChar: b
Encoding: 98 98 34
Width: 1008
VWidth: 4000
Flags: HW
LayerCount: 2
Fore
SplineSet
302 378 m 4
 302 549.8125 424.217773438 680 564 680 c 4
 703.766601562 680 826 549.810546875 826 378 c 4
 826 206.189453125 703.766601562 76 564 76 c 4
 424.217773438 76 302 206.1875 302 378 c 4
206 378 m 4
 206 163.21875 361.344726562 -20 564 -20 c 4
 766.639648438 -20 922 163.216796875 922 378 c 4
 922 592.783203125 766.639648438 776 564 776 c 4
 361.344726562 776 206 592.78125 206 378 c 4
206 48 m 6
 206 21.5078125 227.5078125 0 254 0 c 4
 280.4921875 0 302 21.5078125 302 48 c 6
 302 1008 l 6
 302 1034.4921875 280.4921875 1056 254 1056 c 6
 134 1056 l 6
 107.5078125 1056 86 1034.4921875 86 1008 c 4
 86 981.5078125 107.5078125 960 134 960 c 6
 206 960 l 5
 206 48 l 6
EndSplineSet
EndChar

StartChar: j
Encoding: 106 106 35
Width: 1008
VWidth: 4000
Flags: HW
LayerCount: 2
Fore
SplineSet
246 -72 m 4
 246 -216.729492188 345.9375 -320 494 -320 c 4
 585.001953125 -320 660.401367188 -282.39453125 707.228515625 -217.834960938 c 4
 744.24609375 -166.799804688 762 -102.313476562 762 -32 c 6
 762 708 l 6
 762 734.4921875 740.4921875 756 714 756 c 6
 494 756 l 6
 467.5078125 756 446 734.4921875 446 708 c 4
 446 681.5078125 467.5078125 660 494 660 c 6
 666 660 l 5
 666 -32 l 6
 666 -86.130859375 652.1484375 -130.287109375 629.46875 -161.555664062 c 4
 601.672851562 -199.876953125 558.553710938 -224 494 -224 c 4
 450.244140625 -224 416.145507812 -211.224609375 391.749023438 -191.078125 c 4
 361.572265625 -166.157226562 342 -126.677734375 342 -72 c 4
 342 -45.5078125 320.4921875 -24 294 -24 c 4
 267.5078125 -24 246 -45.5078125 246 -72 c 4
702 988 m 5
 684 970 l 5
 666 988 l 5
 684 1006 l 5
 702 988 l 5
606 988 m 4
 606 944.953125 640.953125 910 684 910 c 4
 727.026367188 910 762 944.931640625 762 988 c 4
 762 1031.04882812 727.048828125 1066 684 1066 c 4
 640.931640625 1066 606 1031.02636719 606 988 c 4
653.9921875 987.997070312 m 4
 653.9921875 1004.56542969 667.423828125 1017.99707031 683.9921875 1017.99707031 c 4
 700.560546875 1017.99707031 713.9921875 1004.56542969 713.9921875 987.997070312 c 4
 713.9921875 971.427734375 700.560546875 957.997070312 683.9921875 957.997070312 c 4
 667.423828125 957.997070312 653.9921875 971.427734375 653.9921875 987.997070312 c 4
342 -72 m 5
 324 -90 l 5
 306 -72 l 5
 324 -54 l 5
 342 -72 l 5
246 -72 m 4
 246 -115.046875 280.953125 -150 324 -150 c 4
 367.026367188 -150 402 -115.068359375 402 -72 c 4
 402 -28.951171875 367.048828125 6 324 6 c 4
 280.931640625 6 246 -28.9736328125 246 -72 c 4
293.9921875 -72.0029296875 m 4
 293.9921875 -55.4345703125 307.423828125 -42.0029296875 323.9921875 -42.0029296875 c 4
 340.560546875 -42.0029296875 353.9921875 -55.4345703125 353.9921875 -72.0029296875 c 4
 353.9921875 -88.5712890625 340.560546875 -102.002929688 323.9921875 -102.002929688 c 4
 307.423828125 -102.002929688 293.9921875 -88.5712890625 293.9921875 -72.0029296875 c 4
EndSplineSet
EndChar

StartChar: r
Encoding: 114 114 36
Width: 1008
VWidth: 4000
Flags: HW
LayerCount: 2
Fore
SplineSet
782 628 m 5
 764 610 l 5
 746 628 l 5
 764 646 l 5
 782 628 l 5
686 628 m 4
 686 584.953125 720.953125 550 764 550 c 4
 807.026367188 550 842 584.931640625 842 628 c 4
 842 671.048828125 807.048828125 706 764 706 c 4
 720.931640625 706 686 671.026367188 686 628 c 4
733.9921875 627.99609375 m 4
 733.9921875 644.565429688 747.423828125 657.99609375 763.9921875 657.99609375 c 4
 780.560546875 657.99609375 793.9921875 644.565429688 793.9921875 627.99609375 c 4
 793.9921875 611.427734375 780.560546875 597.99609375 763.9921875 597.99609375 c 4
 747.423828125 597.99609375 733.9921875 611.427734375 733.9921875 627.99609375 c 4
214 96 m 6
 187.5078125 96 166 74.4921875 166 48 c 4
 166 21.5078125 187.5078125 0 214 0 c 6
 494 0 l 6
 520.4921875 0 542 21.5078125 542 48 c 4
 542 74.4921875 520.4921875 96 494 96 c 6
 214 96 l 6
286 48 m 6
 286 21.5078125 307.5078125 0 334 0 c 4
 360.4921875 0 382 21.5078125 382 48 c 6
 382 708 l 6
 382 734.4921875 360.4921875 756 334 756 c 6
 214 756 l 6
 187.5078125 756 166 734.4921875 166 708 c 4
 166 681.5078125 187.5078125 660 214 660 c 6
 286 660 l 5
 286 48 l 6
842 628 m 4
 842 703.268554688 778.487304688 776 634 776 c 4
 485.41796875 776 409.252929688 699.21484375 296.466796875 557.909179688 c 4
 271.491210938 526.619140625 293.953125 480 334 480 c 4
 349.186523438 480 362.735351562 487.067382812 371.533203125 498.090820312 c 4
 492.5 649.64453125 542.008789062 680 634 680 c 4
 653.296875 680 710.602539062 677.728515625 736.090820312 651.788085938 c 4
 743.268554688 644.482421875 746 637.814453125 746 628 c 4
 746 601.5078125 767.5078125 580 794 580 c 4
 820.4921875 580 842 601.5078125 842 628 c 4
EndSplineSet
EndChar

StartChar: z
Encoding: 122 122 37
Width: 1008
VWidth: 4000
Flags: HW
LayerCount: 2
Fore
SplineSet
901.9921875 192 m 6
 901.9921875 218.4921875 880.484375 240 853.9921875 240 c 4
 827.5 240 805.9921875 218.4921875 805.9921875 192 c 6
 805.9921875 96 l 5
 272.3515625 96 l 5
 867.412109375 673.55859375 l 6
 898.249023438 703.48828125 876.82421875 756 833.9921875 756 c 6
 193.9921875 756 l 6
 167.5 756 145.9921875 734.4921875 145.9921875 708 c 6
 145.9921875 608 l 6
 145.9921875 581.5078125 167.5 560 193.9921875 560 c 4
 220.484375 560 241.9921875 581.5078125 241.9921875 608 c 6
 241.9921875 660 l 5
 715.6328125 660 l 5
 120.572265625 82.44140625 l 6
 89.7353515625 52.51171875 111.16015625 0 153.9921875 0 c 6
 853.9921875 0 l 6
 880.484375 0 901.9921875 21.5078125 901.9921875 48 c 6
 901.9921875 192 l 6
EndSplineSet
EndChar

StartChar: uni0001
Encoding: 1 1 38
Width: 1008
VWidth: 4000
Flags: HW
LayerCount: 2
Fore
SplineSet
929.934570312 801.934570312 m 6
 899.794921875 832.073242188 848 810.49609375 848 768 c 4
 848 754.75390625 853.376953125 742.75390625 862.065429688 734.065429688 c 6
 1582.06542969 14.0654296875 l 6
 1612.20507812 -16.0732421875 1664 5.50390625 1664 48 c 4
 1664 61.24609375 1658.62304688 73.24609375 1649.93457031 81.9345703125 c 6
 929.934570312 801.934570312 l 6
96 797.859375 m 4
 96 887.438476562 168.569335938 960 258.15625 960 c 4
 347.725585938 960 420.296875 887.440429688 420.296875 797.859375 c 4
 420.296875 708.275390625 347.720703125 635.703125 258.15625 635.703125 c 4
 168.573242188 635.703125 96 708.276367188 96 797.859375 c 4
0 797.859375 m 4
 0 655.317382812 115.614257812 539.703125 258.15625 539.703125 c 4
 400.685546875 539.703125 516.296875 655.318359375 516.296875 797.859375 c 4
 516.296875 940.403320312 400.680664062 1056 258.15625 1056 c 4
 115.618164062 1056 0 940.405273438 0 797.859375 c 4
3169.56445312 -265.590820312 m 6
 3152.76269531 -297.326171875 3175.8671875 -336 3212.015625 -336 c 4
 3230.41601562 -336 3246.41210938 -325.624023438 3254.46679688 -310.409179688 c 4
 3257.86621094 -303.98828125 3440.015625 41.72265625 3440.015625 392 c 4
 3440.015625 550.669921875 3403.09960938 706.048828125 3362.60449219 830.34765625 c 4
 3311.98242188 985.729492188 3255.33007812 1092.77832031 3254.46679688 1094.40917969 c 4
 3246.41210938 1109.62402344 3230.41601562 1120 3212.015625 1120 c 4
 3175.8671875 1120 3152.76269531 1081.32617188 3169.56445312 1049.59082031 c 6
 3169.56445312 1049.59082031 3344.015625 718.211914062 3344.015625 392 c 4
 3344.015625 65.7880859375 3169.56445312 -265.590820312 3169.56445312 -265.590820312 c 6
15175.6689453 668.215820312 m 6
 15145.5292969 698.354492188 15093.734375 676.77734375 15093.734375 634.28125 c 4
 15093.734375 621.03515625 15099.1113281 609.03515625 15107.7998047 600.346679688 c 6
 15560.3623047 147.784179688 l 6
 15590.5019531 117.645507812 15642.296875 139.22265625 15642.296875 181.71875 c 4
 15642.296875 194.96484375 15636.9199219 206.96484375 15628.2314453 215.653320312 c 6
 15175.6689453 668.215820312 l 6
15107.7998047 215.653320312 m 6
 15077.6611328 185.513671875 15099.2382812 133.71875 15141.734375 133.71875 c 4
 15154.9804688 133.71875 15166.9804688 139.095703125 15175.6689453 147.784179688 c 6
 15628.2314453 600.346679688 l 6
 15658.3701172 630.486328125 15636.7929688 682.28125 15594.296875 682.28125 c 4
 15581.0507812 682.28125 15569.0507812 676.904296875 15560.3623047 668.215820312 c 6
 15107.7998047 215.653320312 l 6
5008.015625 96 m 6
 4981.5234375 96 4960.015625 74.4921875 4960.015625 48 c 4
 4960.015625 21.5078125 4981.5234375 0 5008.015625 0 c 6
 5568.015625 0 l 6
 5594.5078125 0 5616.015625 21.5078125 5616.015625 48 c 4
 5616.015625 74.4921875 5594.5078125 96 5568.015625 96 c 6
 5008.015625 96 l 6
5240.015625 48 m 6
 5240.015625 21.5078125 5261.5234375 0 5288.015625 0 c 4
 5314.5078125 0 5336.015625 21.5078125 5336.015625 48 c 6
 5336.015625 1008 l 6
 5336.015625 1034.4921875 5314.5078125 1056 5288.015625 1056 c 4
 5270.2421875 1056 5254.71289062 1046.31933594 5246.41601562 1031.94824219 c 4
 5203.30566406 957.278320312 5115.67871094 866.547851562 4995.578125 834.370117188 c 4
 4975.10742188 828.885742188 4960.015625 810.19140625 4960.015625 788 c 4
 4960.015625 756.420898438 4990.08105469 733.4921875 5020.453125 741.629882812 c 4
 5110.68847656 765.805664062 5184.15332031 814.478515625 5240.015625 869.217773438 c 5
 5240.015625 48 l 6
862.065429688 81.9345703125 m 6
 831.926757812 51.794921875 853.50390625 0 896 0 c 4
 909.24609375 0 921.24609375 5.376953125 929.934570312 14.0654296875 c 6
 1649.91894531 734.065429688 l 6
 1680.05761719 764.205078125 1658.48046875 816 1615.984375 816 c 4
 1602.73828125 816 1590.73828125 810.623046875 1582.04980469 801.934570312 c 6
 862.065429688 81.9345703125 l 6
6264.015625 1208 m 4
 6264.015625 1225.70996094 6278.30566406 1240 6296.015625 1240 c 4
 6313.72558594 1240 6328.015625 1225.70996094 6328.015625 1208 c 4
 6328.015625 1190.29003906 6313.72558594 1176 6296.015625 1176 c 4
 6278.30566406 1176 6264.015625 1190.29003906 6264.015625 1208 c 4
6168.015625 1208 m 4
 6168.015625 1137.33496094 6225.35058594 1080 6296.015625 1080 c 4
 6366.68066406 1080 6424.015625 1137.33496094 6424.015625 1208 c 4
 6424.015625 1278.66503906 6366.68066406 1336 6296.015625 1336 c 4
 6225.35058594 1336 6168.015625 1278.66503906 6168.015625 1208 c 4
14193.9501953 1041.93457031 m 6
 14163.8105469 1072.07324219 14112.015625 1050.49609375 14112.015625 1008 c 4
 14112.015625 994.75390625 14117.3925781 982.75390625 14126.0810547 974.065429688 c 6
 14526.0810547 574.065429688 l 6
 14556.2207031 543.926757812 14608.015625 565.50390625 14608.015625 608 c 4
 14608.015625 621.24609375 14602.6386719 633.24609375 14593.9501953 641.934570312 c 6
 14193.9501953 1041.93457031 l 6
EndSplineSet
EndChar

StartChar: plus
Encoding: 43 43 39
Width: 1008
VWidth: 4000
Flags: HW
LayerCount: 2
Fore
SplineSet
184 456 m 6
 157.5078125 456 136 434.4921875 136 408 c 4
 136 381.5078125 157.5078125 360 184 360 c 6
 824 360 l 6
 850.4921875 360 872 381.5078125 872 408 c 4
 872 434.4921875 850.4921875 456 824 456 c 6
 184 456 l 6
456 88 m 6
 456 61.5078125 477.5078125 40 504 40 c 4
 530.4921875 40 552 61.5078125 552 88 c 6
 552 728 l 6
 552 754.4921875 530.4921875 776 504 776 c 4
 477.5078125 776 456 754.4921875 456 728 c 6
 456 88 l 6
EndSplineSet
EndChar

StartChar: semicolon
Encoding: 59 59 40
Width: 1008
VWidth: 4000
Flags: HW
LayerCount: 2
Fore
SplineSet
505.946289062 78 m 0
 505.946289062 -0.5244140625 400.328125 -89.560546875 366.799804688 -112.418945312 c 0
 328.106445312 -139.020507812 347.190429688 -200 393.946289062 -200 c 0
 404.018554688 -200 413.370117188 -196.891601562 421.092773438 -191.581054688 c 0
 434.55078125 -182.329101562 601.946289062 -64.3828125 601.946289062 78 c 0
 601.946289062 104.4921875 580.438476562 126 553.946289062 126 c 0
 527.454101562 126 505.946289062 104.4921875 505.946289062 78 c 0
501.946289062 678 m 2
 504.370117188 683.55078125 508.291992188 676 503.946289062 676 c 0
 502.806640625 676 501.946289062 678 501.946289062 678 c 2
405.946289062 678 m 0
 405.946289062 623.889648438 449.8671875 580 503.946289062 580 c 0
 558.025390625 580 601.946289062 623.889648438 601.946289062 678 c 0
 601.946289062 732.091796875 558.038085938 776 503.946289062 776 c 0
 449.854492188 776 405.946289062 732.091796875 405.946289062 678 c 0
453.946289062 677.997070312 m 0
 453.946289062 705.611328125 476.33203125 727.997070312 503.946289062 727.997070312 c 0
 531.560546875 727.997070312 553.946289062 705.611328125 553.946289062 677.997070312 c 0
 553.946289062 650.3828125 531.560546875 627.997070312 503.946289062 627.997070312 c 0
 476.33203125 627.997070312 453.946289062 650.3828125 453.946289062 677.997070312 c 0
501.946289062 78 m 2
 504.370117188 83.55078125 508.291992188 76 503.946289062 76 c 0
 502.806640625 76 501.946289062 78 501.946289062 78 c 2
405.946289062 78 m 0
 405.946289062 23.8896484375 449.8671875 -20 503.946289062 -20 c 0
 558.025390625 -20 601.946289062 23.8896484375 601.946289062 78 c 0
 601.946289062 132.091796875 558.038085938 176 503.946289062 176 c 0
 449.854492188 176 405.946289062 132.091796875 405.946289062 78 c 0
453.946289062 77.9970703125 m 0
 453.946289062 105.611328125 476.33203125 127.997070312 503.946289062 127.997070312 c 0
 531.560546875 127.997070312 553.946289062 105.611328125 553.946289062 77.9970703125 c 0
 553.946289062 50.3828125 531.560546875 27.9970703125 503.946289062 27.9970703125 c 0
 476.33203125 27.9970703125 453.946289062 50.3828125 453.946289062 77.9970703125 c 0
EndSplineSet
EndChar

StartChar: C
Encoding: 67 67 41
Width: 1008
VWidth: 4000
Flags: HW
LayerCount: 2
Fore
SplineSet
145.983398438 528 m 4
 145.983398438 222.09375 312.311523438 -20 533.983398438 -20 c 4
 712.641601562 -20 804.943359375 130.602539062 858.80859375 270.809570312 c 4
 870.803710938 302.033203125 847.692382812 336 813.983398438 336 c 4
 793.547851562 336 776.078125 323.202148438 769.158203125 305.190429688 c 4
 717.0859375 169.647460938 647.168945312 76 533.983398438 76 c 4
 367.041015625 76 241.983398438 280.879882812 241.983398438 528 c 4
 241.983398438 625.420898438 256.735351562 715.338867188 283.268554688 788.180664062 c 4
 310.42578125 862.735351562 372.45703125 980 493.983398438 980 c 4
 545.569335938 980 640.694335938 967.875 714.15234375 844.57421875 c 4
 737.836914062 804.8203125 755.501953125 759.48046875 767.704101562 715.228515625 c 4
 773.301757812 694.927734375 791.913085938 680 813.983398438 680 c 4
 845.711914062 680 868.657226562 710.331054688 860.262695312 740.771484375 c 4
 831.42578125 845.346679688 779.049804688 946.645507812 694.838867188 1010.25976562 c 4
 641.470703125 1050.57519531 574.061523438 1076 493.983398438 1076 c 4
 282.74609375 1076 145.983398438 843.873046875 145.983398438 528 c 4
861.983398438 1008 m 6
 861.983398438 1034.4921875 840.475585938 1056 813.983398438 1056 c 4
 787.491210938 1056 765.983398438 1034.4921875 765.983398438 1008 c 6
 765.983398438 728 l 6
 765.983398438 701.5078125 787.491210938 680 813.983398438 680 c 4
 840.475585938 680 861.983398438 701.5078125 861.983398438 728 c 6
 861.983398438 1008 l 6
EndSplineSet
EndChar

StartChar: K
Encoding: 75 75 42
Width: 1008
VWidth: 4000
Flags: HW
LayerCount: 2
Fore
SplineSet
124 1056 m 6
 97.5078125 1056 76 1034.4921875 76 1008 c 4
 76 981.5078125 97.5078125 960 124 960 c 6
 324 960 l 6
 350.4921875 960 372 981.5078125 372 1008 c 4
 372 1034.4921875 350.4921875 1056 324 1056 c 6
 124 1056 l 6
124 96 m 6
 97.5078125 96 76 74.4921875 76 48 c 4
 76 21.5078125 97.5078125 0 124 0 c 6
 324 0 l 6
 350.4921875 0 372 21.5078125 372 48 c 4
 372 74.4921875 350.4921875 96 324 96 c 6
 124 96 l 6
176 68 m 6
 176 41.5078125 197.5078125 20 224 20 c 4
 250.4921875 20 272 41.5078125 272 68 c 6
 272 1008 l 6
 272 1034.4921875 250.4921875 1056 224 1056 c 4
 197.5078125 1056 176 1034.4921875 176 1008 c 6
 176 68 l 6
664 1056 m 6
 637.5078125 1056 616 1034.4921875 616 1008 c 4
 616 981.5078125 637.5078125 960 664 960 c 6
 864 960 l 6
 890.4921875 960 912 981.5078125 912 1008 c 4
 912 1034.4921875 890.4921875 1056 864 1056 c 6
 664 1056 l 6
208.9453125 420.776367188 m 6
 180.358398438 390.217773438 202.245117188 340 244 340 c 4
 257.825195312 340 270.29296875 345.857421875 279.0546875 355.223632812 c 6
 859.0546875 975.223632812 l 6
 887.641601562 1005.78222656 865.754882812 1056 824 1056 c 4
 810.174804688 1056 797.70703125 1050.14257812 788.9453125 1040.77636719 c 6
 208.9453125 420.776367188 l 6
684 96 m 6
 657.5078125 96 636 74.4921875 636 48 c 4
 636 21.5078125 657.5078125 0 684 0 c 6
 884 0 l 6
 910.4921875 0 932 21.5078125 932 48 c 4
 932 74.4921875 910.4921875 96 884 96 c 6
 684 96 l 6
804 20 m 4
 841.134765625 20 864.157226562 60.6396484375 845.32421875 92.4189453125 c 6
 525.32421875 632.418945312 l 6
 516.961914062 646.530273438 501.578125 656 484 656 c 4
 446.865234375 656 423.842773438 615.360351562 442.67578125 583.581054688 c 6
 762.67578125 43.5810546875 l 6
 771.038085938 29.4697265625 786.421875 20 804 20 c 4
EndSplineSet
EndChar

StartChar: S
Encoding: 83 83 43
Width: 1008
VWidth: 4000
Flags: HW
LayerCount: 2
Fore
SplineSet
109.703125 48 m 6
 109.703125 21.5078125 131.2109375 0 157.703125 0 c 4
 184.1953125 0 205.703125 21.5078125 205.703125 48 c 6
 205.703125 288 l 6
 205.703125 314.4921875 184.1953125 336 157.703125 336 c 4
 131.2109375 336 109.703125 314.4921875 109.703125 288 c 6
 109.703125 48 l 6
789.703125 828 m 6
 789.703125 801.5078125 811.2109375 780 837.703125 780 c 4
 864.1953125 780 885.703125 801.5078125 885.703125 828 c 6
 885.703125 1008 l 6
 885.703125 1034.4921875 864.1953125 1056 837.703125 1056 c 4
 811.2109375 1056 789.703125 1034.4921875 789.703125 1008 c 6
 789.703125 828 l 6
802.296875 285.703125 m 4
 802.296875 146.22265625 683.811523438 76 542.296875 76 c 4
 385.578125 76 306.275390625 176.788085938 195.4453125 317.645507812 c 4
 167.357421875 353.34375 109.703125 333.221679688 109.703125 288 c 4
 109.703125 271.408203125 115.627929688 263.870117188 127.3984375 248.895507812 c 4
 227.956054688 120.9609375 336.387695312 -20 542.296875 -20 c 4
 760.668945312 -20 898.296875 111.813476562 898.296875 285.703125 c 4
 898.296875 344.819335938 890.108398438 421.751953125 816.325195312 490.918945312 c 4
 762.375976562 541.493164062 679.84375 583.474609375 551.856445312 620.963867188 c 4
 328.494140625 686.377929688 290.458984375 739.759765625 276.791992188 776.794921875 c 4
 269.791992188 795.766601562 267.610351562 817.76171875 268.161132812 843.828125 c 4
 269.028320312 884.897460938 288.341796875 933.521484375 363.265625 961.504882812 c 4
 462.301757812 998.495117188 682.025390625 996.30859375 796.392578125 803.55859375 c 4
 804.7578125 789.458984375 820.134765625 780 837.703125 780 c 4
 874.848632812 780 897.870117188 820.663085938 879.013671875 852.44140625 c 4
 742.592773438 1082.36230469 476.241210938 1106.19726562 329.716796875 1051.47070312 c 4
 290.428710938 1036.796875 255.358398438 1015.16601562 228.020507812 985.754882812 c 4
 193.6640625 948.791992188 173.334960938 900.446289062 172.182617188 845.890625 c 4
 170.684570312 774.96484375 184.642578125 702.93359375 266.250976562 641.129882812 c 4
 322.163085938 598.787109375 403.158203125 564.459960938 524.862304688 528.817382812 c 4
 735.9140625 466.997070312 775.97265625 400.521484375 790.11328125 364.9296875 c 4
 799.3828125 341.59765625 802.296875 315.896484375 802.296875 285.703125 c 4
EndSplineSet
EndChar

StartChar: bracketleft
Encoding: 91 91 44
Width: 1008
VWidth: 4000
Flags: HW
LayerCount: 2
Fore
SplineSet
604 960 m 6
 630.4921875 960 652 981.5078125 652 1008 c 4
 652 1034.4921875 630.4921875 1056 604 1056 c 6
 404 1056 l 6
 377.5078125 1056 356 1034.4921875 356 1008 c 6
 356 -252 l 6
 356 -278.4921875 377.5078125 -300 404 -300 c 6
 604 -300 l 6
 630.4921875 -300 652 -278.4921875 652 -252 c 4
 652 -225.5078125 630.4921875 -204 604 -204 c 6
 452 -204 l 5
 452 960 l 5
 604 960 l 6
EndSplineSet
EndChar

StartChar: c
Encoding: 99 99 45
Width: 1008
VWidth: 4000
Flags: HW
LayerCount: 2
Fore
SplineSet
789.1953125 568 m 1
 771.1953125 550 l 1
 753.1953125 568 l 1
 771.1953125 586 l 1
 789.1953125 568 l 1
693.1953125 568 m 0
 693.1953125 524.953125 728.1484375 490 771.1953125 490 c 0
 814.221679688 490 849.1953125 524.931640625 849.1953125 568 c 0
 849.1953125 611.048828125 814.244140625 646 771.1953125 646 c 0
 728.126953125 646 693.1953125 611.026367188 693.1953125 568 c 0
741.1875 567.997070312 m 0
 741.1875 584.56640625 754.619140625 597.997070312 771.1875 597.997070312 c 0
 787.755859375 597.997070312 801.1875 584.56640625 801.1875 567.997070312 c 0
 801.1875 551.428710938 787.755859375 537.997070312 771.1875 537.997070312 c 0
 754.619140625 537.997070312 741.1875 551.428710938 741.1875 567.997070312 c 0
530.0390625 -20 m 0
 681.959960938 -16.4248046875 832.381835938 84.32421875 846.21484375 268.421875 c 0
 847.990234375 299.887695312 823.330078125 320.0625 798.3515625 320.0625 c 0
 773.083984375 320.0625 752.350585938 300.497070312 750.48828125 275.703125 c 0
 739.90234375 134.831054688 621.282226562 78.1474609375 530.0390625 76 c 0
 381.01171875 76 254.8046875 213.348632812 254.8046875 385.84375 c 0
 254.8046875 551.416992188 365.462890625 679.513671875 521.346679688 680 c 0
 561.116210938 680.001953125 606.538085938 672.5234375 646.348632812 658.838867188 c 0
 665.12109375 652.38671875 753.1953125 619.375 753.1953125 568 c 0
 753.1953125 541.5078125 774.703125 520 801.1953125 520 c 0
 827.6875 520 849.1953125 541.5078125 849.1953125 568 c 0
 849.1953125 701.840820312 666.89453125 776.001953125 522.31640625 776.001953125 c 0
 314.625 775.356445312 158.8046875 607.317382812 158.8046875 385.84375 c 0
 158.8046875 169.338867188 318.91015625 -20 530.0390625 -20 c 0
EndSplineSet
EndChar

StartChar: cedilla
Encoding: 184 184 46
Width: 1008
VWidth: 4000
Flags: HW
LayerCount: 2
Fore
SplineSet
624.677734375 -244.681640625 m 4
 664.783203125 -195.552734375 669.302734375 -85.462890625 534.315429688 -53.1005859375 c 5
 564.15625 6.580078125 l 6
 579.995117188 38.259765625 556.870117188 76 521.1953125 76 c 4
 502.3984375 76 486.111328125 65.1728515625 478.234375 49.419921875 c 6
 418.234375 -70.580078125 l 6
 402.395507812 -102.259765625 425.520507812 -140 461.1953125 -140 c 4
 488.064453125 -140.126953125 539.970703125 -149.095703125 551.522460938 -165.844726562 c 4
 554.432617188 -170.065429688 553.70703125 -179.836914062 550.278320312 -184.037109375 c 4
 548.134765625 -186.663085938 537.786132812 -193.975585938 514.044921875 -198.3359375 c 4
 485.516601562 -203.575195312 444.34375 -204 401.1953125 -204 c 4
 374.703125 -204 353.1953125 -225.5078125 353.1953125 -252 c 4
 353.1953125 -278.4921875 374.703125 -300 401.1953125 -300 c 4
 492.877929688 -300 579.51953125 -300 624.677734375 -244.681640625 c 4
EndSplineSet
EndChar

StartChar: k
Encoding: 107 107 47
Width: 1008
VWidth: 4000
Flags: HW
LayerCount: 2
Fore
SplineSet
137.125 96 m 6
 110.6328125 96 89.125 74.4921875 89.125 48 c 4
 89.125 21.5078125 110.6328125 0 137.125 0 c 6
 337.125 0 l 6
 363.6171875 0 385.125 21.5078125 385.125 48 c 4
 385.125 74.4921875 363.6171875 96 337.125 96 c 6
 137.125 96 l 6
189.125 68 m 6
 189.125 41.5078125 210.6328125 20 237.125 20 c 4
 263.6171875 20 285.125 41.5078125 285.125 68 c 6
 285.125 1008 l 6
 285.125 1034.4921875 263.6171875 1056 237.125 1056 c 6
 137.125 1056 l 6
 110.6328125 1056 89.125 1034.4921875 89.125 1008 c 4
 89.125 981.5078125 110.6328125 960 137.125 960 c 6
 189.125 960 l 5
 189.125 68 l 6
670.875 96 m 6
 644.3828125 96 622.875 74.4921875 622.875 48 c 4
 622.875 21.5078125 644.3828125 0 670.875 0 c 6
 870.875 0 l 6
 897.3671875 0 918.875 21.5078125 918.875 48 c 4
 918.875 74.4921875 897.3671875 96 870.875 96 c 6
 670.875 96 l 6
577.125 756 m 6
 550.6328125 756 529.125 734.4921875 529.125 708 c 4
 529.125 681.5078125 550.6328125 660 577.125 660 c 6
 797.125 660 l 6
 823.6171875 660 845.125 681.5078125 845.125 708 c 4
 845.125 734.4921875 823.6171875 756 797.125 756 c 6
 577.125 756 l 6
223.92578125 282.654296875 m 6
 192.791992188 252.818359375 214.149414062 200 257.125 200 c 4
 270.000976562 200 281.700195312 205.081054688 290.32421875 213.345703125 c 6
 770.32421875 673.345703125 l 6
 801.458007812 703.181640625 780.100585938 756 737.125 756 c 4
 724.249023438 756 712.549804688 750.918945312 703.92578125 742.654296875 c 6
 223.92578125 282.654296875 l 6
749.546875 39.7890625 m 6
 776.805664062 2.3515625 836.375 21.8935546875 836.375 68 c 4
 836.375 78.5390625 832.970703125 88.2900390625 827.203125 96.2109375 c 6
 535.953125 496.2109375 l 6
 508.694335938 533.6484375 449.125 514.106445312 449.125 468 c 4
 449.125 457.4609375 452.529296875 447.709960938 458.296875 439.7890625 c 6
 749.546875 39.7890625 l 6
EndSplineSet
EndChar

StartChar: s
Encoding: 115 115 48
Width: 1008
VWidth: 4000
Flags: HWO
LayerCount: 2
Fore
SplineSet
766.016601562 556 m 6
 766.016601562 529.5078125 787.524414062 508 814.016601562 508 c 4
 840.508789062 508 862.016601562 529.5078125 862.016601562 556 c 6
 862.016601562 708 l 6
 862.016601562 734.4921875 840.508789062 756 814.016601562 756 c 4
 787.524414062 756 766.016601562 734.4921875 766.016601562 708 c 6
 766.016601562 556 l 6
126.016601562 48 m 6
 126.016601562 21.5078125 147.524414062 0 174.016601562 0 c 4
 200.508789062 0 222.016601562 21.5078125 222.016601562 48 c 6
 222.016601562 220 l 6
 222.016601562 246.4921875 200.508789062 268 174.016601562 268 c 4
 147.524414062 268 126.016601562 246.4921875 126.016601562 220 c 6
 126.016601562 48 l 6
775.592773438 527.241210938 m 4
 803.176757812 490.461914062 862.016601562 510.23046875 862.016601562 556 c 4
 862.016601562 566.783203125 858.453125 576.741210938 852.440429688 584.758789062 c 4
 771.362304688 692.868164062 668.94140625 776 434.016601562 776 c 4
 387.73828125 776 241.568359375 774.466796875 186.352539062 662.755859375 c 4
 172.524414062 634.779296875 166.016601562 602.845703125 166.016601562 568 c 4
 166.016601562 515.58203125 189.5234375 447.205078125 293.657226562 401.490234375 c 4
 350.74609375 376.427734375 423.555664062 361.030273438 513.189453125 352.127929688 c 4
 581.807617188 345.30859375 708.26953125 324.776367188 762.896484375 264.321289062 c 4
 779.44921875 246.001953125 786.016601562 228.211914062 786.016601562 208 c 4
 786.016601562 154.188476562 760.362304688 125.286132812 723.153320312 106.375 c 4
 686.461914062 87.7265625 629.4140625 76 554.016601562 76 c 4
 350.830078125 76 287.059570312 136.62109375 214.022460938 246.51953125 c 4
 205.419921875 259.461914062 190.708007812 268 174.016601562 268 c 4
 135.811523438 268 112.9375 225.189453125 134.010742188 193.48046875 c 4
 224.850585938 56.796875 317.806640625 -20 554.016601562 -20 c 4
 615.76171875 -20 792.461914062 -16.1943359375 858.416992188 107.55859375 c 4
 874.42578125 137.596679688 882.016601562 171.688476562 882.016601562 208 c 4
 882.016601562 240.538085938 878.096679688 412.342773438 522.78125 447.653320312 c 4
 440.3515625 455.840820312 305.08203125 477.928710938 270.514648438 535.854492188 c 4
 264.834960938 545.373046875 262.016601562 555.24609375 262.016601562 568 c 4
 262.016601562 624.176757812 287.40234375 645.2421875 310.185546875 657.26171875 c 4
 337.1484375 671.486328125 379.666992188 680 434.016601562 680 c 4
 639.823242188 680 713.46484375 610.083984375 775.592773438 527.241210938 c 4
EndSplineSet
EndChar
